<?xml version="1.0" encoding="utf-8"?>
<!-- Generator: Adobe Illustrator 19.0.0, SVG Export Plug-In . SVG Version: 6.00 Build 0)  -->
<svg version="1.1" id="_x31_" xmlns="http://www.w3.org/2000/svg" xmlns:xlink="http://www.w3.org/1999/xlink" x="0px" y="0px"
	 viewBox="0 0 1400 980" style="enable-background:new 0 0 1400 980;" xml:space="preserve">
<style type="text/css">
	.st0{fill:#151D38;}
	.st1{fill:#E8384A;}
	.st2{fill:#FCE2D8;}
	.st3{fill:#FEDB03;}
	.st4{fill:#FF8502;}
	.st5{fill:#FFFFFF;}
	.st6{fill:#49BEFE;}
</style>
<g>
	<path class="st0" d="M1157.4,580.6c1.1,0.6,2.2,1.1,3.2,1.7c3.1,1.9,4.3,5.6,2.7,8.8c-1.5,3.1-4.9,4.4-8.3,3.3
		c-1-0.3-1.9-0.9-2.8-1.4c-3.2-1.7-6.3-3.5-9.4-5.2c-0.9-0.5-1.5-0.5-1.6,0.7c-0.1,0.6-0.2,1.1-0.4,1.6c-0.9,3.4-4,5.4-7.5,4.9
		c-3.5-0.5-5.9-3.3-5.6-6.9c0.2-2.5,0.7-5.1,1.4-7.5c0.4-1.5,0.1-2.6-0.9-3.7c-1.7-2-3.2-4.2-4.8-6.3c-0.6-0.8-1.4-1.6-2.1-2.3
		c-22.3-19.3-44.6-38.6-67-57.9c-1.5-1.3-1.6-1.3-2.9,0.3c-1.6,1.8-1.3,1.5-2.9,0.2c-2.6-2.2-5.3-4.4-7.9-6.6
		c-0.5-0.4-1.1-1.4-1.7-1.1c-0.8,0.4-0.3,1.4-0.4,2.2c-0.1,0.8,0,1.6,0,2.4c0,19,0,37.9,0,56.9c0,3.4,0.2,2.9-3,3
		c-5.4,0-10.9,0-16.3,0c-2.5,0-2.6,0-2.6,2.7c0,12.9,0,25.7,0,38.6c0,3.1,0.4,2.9-2.8,2.9c-3.1,0-2.9-0.3-2.9,2.8
		c0,36.1,0,72.3,0,108.4c0,1.4,0.2,2.7,0.6,4c1.5,4.5,3.5,8.6,6.7,12.1c2.7,3.1,6.1,5.1,9.9,6.6c2.8,1.1,5.8,1.8,8.7,2.5
		c1.9,0.4,3.2,0.2,4.8-1.1c10.3-8.2,25.5-3.5,29.5,8.8c0.6,2,0.9,4.1,0.9,6.1c0,3.6,0,7.2,0,10.8c0,1.1-0.1,2.1-0.7,3
		c-27.8,0-55.7,0-83.5,0c-0.5-0.5-1-1-1-1.9c0-3.4-0.3-6.8,0.1-10.1c1.2-10.1,2.7-20.1,4-30.2c0.4-3.5,1.2-6.9,1.2-10.5
		c0-36.2,0-72.5,0-108.7c0-3,0.2-2.8-2.7-2.8c-2,0-2,0-2-2.2c0-6.9,0-13.8,0-20.6c0-0.6,0-1.3,0-1.9c0-0.6-0.3-0.9-0.9-0.8
		c-3.3,0.3-6.5,0.4-9.8,0c-0.9-0.1-1.1,0.4-1.1,1.1c0,0.6,0,1.3,0,1.9c0,6.7,0,13.4,0,20.2c0,2.3,0,2.3-2.2,2.3c-3.2,0-3-0.4-3,3
		c0,36.2,0,72.3,0,108.5c0,1,0,2.1,0.1,3.1c1.2,8.9,2.4,17.7,3.6,26.6c0.9,6.6,1.9,13.1,1.6,19.8c-0.1,1.1-0.1,2.2-0.9,3.1
		c-27.8,0-55.7,0-83.5,0c-0.4-0.6-0.9-1.1-0.9-1.9c0.1-5-0.4-10.1,0.3-15.1c1.1-7,5-11.9,11.5-14.5c6.6-2.6,12.9-1.7,18.5,2.8
		c1.5,1.2,2.8,1.5,4.6,1.1c3.9-0.8,7.7-1.9,11.4-3.6c4.8-2.3,8.4-5.8,11-10.3c2.5-4.4,3.9-8.9,3.9-14.1
		c-0.1-34.9-0.1-69.8-0.1-104.6c0-0.6,0-1.3,0-1.9c-0.1-1.8-0.1-1.8-1.9-1.9c-0.4,0-0.8,0-1.2,0c-0.7,0-1-0.3-1-1c0-0.6,0-1.3,0-1.9
		c0-12.6,0-25.1,0-37.7c0-0.6,0-1.1,0-1.7c-0.1-1.8-0.1-1.8-1.9-1.8c-5.8,0-11.5,0-17.3,0c-3.2,0-2.9,0.2-2.9-2.8
		c0-19.9,0.1-39.8,0.1-59.8c0-0.9,0.5-2.3-0.3-2.7c-0.8-0.4-1.5,0.9-2.2,1.5c-3.4,2.8-6.7,5.7-10.1,8.5c-1.3,1.1-1.3,1-2.4-0.2
		c-0.2-0.2-0.3-0.4-0.5-0.5c-1.3-1.5-1.3-1.5-3-0.3c-22.5,15.9-47.4,25.9-74.5,30.8c-11,2-22.2,2.9-33.4,3.2c-0.3,0-0.6,0-1,0
		c-0.8,0-1,0.3-0.7,1c0.8,1.6,1.5,3.2,2.3,4.7c2.4,4.6,1.4,4.2-1.9,5.8c-11.3,5.5-22.6,11-33.8,16.5c-2.5,1.2-2.8,1.1-4-1.4
		c-1.6-3.3-3.2-6.6-4.8-9.9c-0.4-0.9-0.9-1.3-2-1.4c-3.2-0.3-5.3-2.1-6.2-5.2c-0.3-1-0.7-1.3-1.7-1.5c-3.2-0.6-5.4-2.8-5.7-6
		c-0.1-1.4-0.8-1.8-2-2.1c-5.4-1.4-8.8-6-8.6-11.6c0.2-4.2,2.1-7.5,5.8-9.6c1.6-1,1.6-0.9,0.8-2.6c-0.9-1.8-1.9-3.5-2.5-5.5
		c-1.8-5.6-2.2-11.1,1-16.4c0.4-0.7,0.4-1.3,0-2c-0.6-1.1-1.2-2.3-1.7-3.4c-0.5-1.3-0.3-1.8,0.9-2.6c0.1-0.1,0.3-0.1,0.4-0.2
		c1.1-0.7,2.6-0.8,3.2-1.9c0.5-1.1-0.2-2.3-0.3-3.5c-0.1-2.9-0.8-5.7-2.4-8.2c-0.5-0.7-0.8-1.6-1.1-2.4c-0.7-2.1,0.2-4.4,2.1-5.3
		c2-1,4.3-0.5,5.5,1.4c0.6,0.9,1.2,1.9,1.5,3c1.3,3.7,4.3,5.9,6.8,8.5c0.6,0.6,1.1,0.5,1.7,0.1c0.9-0.5,1.8-1,2.8-1.4
		c1.3-0.5,1.9-0.3,2.5,0.9c0.8,1.4,1.1,3.2,2.3,4.2c1,0.9,2.9,0.7,4.3,1.2c5.4,2,9,6,11.6,10.9c1.3,2.5,1.2,2.4,4,1.8
		c6.7-1.5,12.6,0.1,17.3,5.1c4.7,5,5.9,11,4.1,17.6c-0.1,0.4-0.3,0.8-0.4,1.1c-0.4,1.2-0.3,1.4,1,1.4c2.5-0.1,5-0.1,7.4-0.3
		c29.6-2,57.1-10.6,82.2-26.4c1.7-1.1,3.3-2.2,5-3.3c1-0.6,1.2-1.2,0.3-2c-0.2-0.2-0.4-0.5-0.6-0.7c-0.9-0.8-0.6-1.4,0.3-2.1
		c3.5-2.9,7-5.9,10.5-8.8c4.6-3.9,9.1-7.8,13.8-11.6c1.1-0.9,1.6-1.8,1.5-3.3c-0.1-3-0.1-6.1,0-9.1c0.1-1.6-0.5-2.6-1.8-3.6
		c-10.1-7.7-18.5-17-25-27.8c-8.8-14.6-13.7-30.4-14.5-47.4c-1.2-28.3,7.9-52.9,26.9-73.9c3.9-4.3,8.2-8.1,12.8-11.6
		c1.1-0.9,1.6-1.8,1.6-3.2c0-4.4-0.1-8.8,0.1-13.2c1-18.3,7.6-34.2,19.7-47.8c12.2-13.7,27.5-21.9,45.5-25c2.4-0.4,4.9-0.4,7.3-1.1
		c3.5,0,7,0,10.6,0c1.8,0.8,3.8,0.6,5.6,0.9c33.3,4.5,60.3,30.7,66,64c0.7,4.3,1.1,8.6,1.1,12.9c0,19.1,0,38.2,0,57.3
		c0,0.6,0,1.1,0,1.7c0,2,0,2,2,1.9c5.5-0.1,10.2,1.7,14.1,5.6c6.8,6.8,7.5,17.6,1.5,25.1c-1.1,1.4-1.6,2.6-1.2,4.4
		c1.3,6-4,11.7-10.2,11.2c-2.1-0.2-2.1-0.2-2.5,2c-0.7,4.4-1.7,8.6-3,12.8c-0.5,1.6-0.7,3.2-0.7,4.9c0,28.5,0,57.1,0,85.6
		c0,3.8,0.2,3.2-3.2,3.3c-1.4,0.1-3-0.5-4.4,0.4c0.8,1.2,2,2,3.1,2.9c20.2,17.5,40.4,34.9,60.6,52.4c1.1,1,2.2,1.2,3.6,1.4
		c4.3,0.4,7.9-0.7,11.4-3.2c2.6-2,5.5-3.5,8.3-5.2c2.9-1.8,5.7-1.7,8.1,0c2.4,1.8,3.2,4.7,2.1,8c-0.4,1.4-0.4,1.5,1,1.3
		c1.2-0.2,2.4-0.3,3.6-0.5c4.2-0.6,6.7,1,7.9,5.1c0,0.1,0.2,0.2,0.3,0.3c0,0.6,0,1.3,0,1.9c-0.7,0.8-0.4,2-1,2.9
		c-1.1,1.5-2.4,2.6-4.2,2.9c-1.1,0.2-1.3,0.5-0.4,1.3c1.6,1.4,2.4,3.1,2.4,5.3c-0.1,4-3.2,6.9-7.2,6.6c-2.5-0.2-5.1-0.7-7.6-0.9
		C1160,580.5,1158.7,580.1,1157.4,580.6c0.1,0.1,0.1,0,0.1,0C1157.5,580.7,1157.5,580.6,1157.4,580.6z"/>
	<path class="st1" d="M937.7,282.8c1,0.4,1.7-0.3,2.4-0.6c17.2-7.3,35.1-9.9,53.7-7.5c21.9,2.9,40.7,12.1,56.7,27.2
		c0.4,0.4,0.8,0.8,1.2,1.2c0.1,0.1,0.3,0.1,0.4,0.1c0-0.1,0.1-0.3,0-0.4c-0.3-0.6-0.6-1.1-0.9-1.7c-4.2-7.4-9.3-14.1-15.7-19.9
		c-13.4-12.1-29.2-18.5-47.3-18.7c-14-0.1-27,3.8-38.9,11.2C945.3,276.4,941.2,279.2,937.7,282.8c-0.1,0.3-0.1-0.1-0.1,0.2
		c0,0,0,0.1,0.1,0.1C937.8,283,937.8,282.9,937.7,282.8z"/>
	<path class="st2" d="M882.4,374.8c0.1,4.9,0.4,9.8,1.1,14.6c3.5,22.6,13.4,42,30.3,57.4c22.9,21,50.1,29.5,80.9,25.3
		c21.4-2.9,39.7-12.2,55-27.4c15.3-15.2,24.6-33.5,28-54.8c0.2-1.5,0-2.5-1.1-3.6c-3.6-3.6-3.7-9.4-0.4-13.1c3.4-3.9,9-4.5,13.2-1.4
		c1.6,1.1,1.6,1.1,2.7-0.3c3.9-5.1,4.3-12.3,0.9-17.8c-3.4-5.7-9.9-8.6-16.4-7.5c-2.1,0.4-2.1,0.4-2.8-1.8c-0.9-2.5-1.8-5-2.8-7.4
		c-0.7-1.7-0.7-1.6-2.4-1.3c-2.6,0.4-5.2,0.9-7.8,1.3c-10.8,1.4-21.5,1.1-32.2-1.4c-18.4-4.4-33-14.6-44.4-29.5
		c-0.6-0.8-1.2-1.5-1.7-2.3c-0.2-0.2-0.4-0.6-0.7-0.4c-0.4,0.2-0.2,0.5-0.2,0.8c-0.1,2.1,0.2,4.2,0.4,6.2c0.9,8.3,3.6,15.9,8.9,22.4
		c2.2,2.7,2.2,2.7-1.2,3.5c-16.2,3.9-32.5,4.7-49,1.5c-14.3-2.8-26.9-8.9-37.6-18.9c-1.8-1.7-1.8-1.7-3.2,0.3
		C888.4,335.8,882.6,354.4,882.4,374.8z"/>
	<path class="st3" d="M996.5,522.2c0,13.4,0,26.9,0,40.3c0,2.1,0,2.1,2.1,2.2c0.3,0,0.6,0,1,0c11,0,21.9,0,32.9,0c3.2,0,3,0.4,3-2.9
		c0-20.8,0-41.6,0-62.4c0-0.6,0-1.3,0-1.9c0-1.1,0.5-1,1.2-0.5c0.6,0.5,1.2,1,1.8,1.5c3.1,2.6,6.2,5.3,9.3,7.9
		c2,1.7,1.6,1.9,3.5-0.2c3.6-4.3,7.2-8.6,10.8-12.8c0.3-0.3,0.5-0.6,0.8-0.9c0.4-0.4,0.4-0.9-0.1-1.2c-0.4-0.3-0.7-0.6-1.1-0.9
		c-9.5-8-19.1-16.1-28.6-24.1c-0.6-0.5-1.4-0.9-1.6-1.7c-0.5-1.5-1.3-1.1-2.4-0.6c-9.4,5.1-19.4,8.7-29.9,10.6
		c-1.3,0.2-1.7,0.8-1.9,2c-0.4,2.9-0.7,5.9-0.7,8.8C996.5,497.6,996.5,509.9,996.5,522.2z"/>
	<path class="st3" d="M966.4,521.1c0-12.3,0-24.6,0-37c0-2.4-0.2-4.8-0.5-7.2c-0.2-1.4-0.7-2-2.2-2.2c-10.2-1.7-20-4.9-29.2-9.7
		c-1.6-0.8-2.5-0.5-3.8,0.5c-6.2,5.3-12.5,10.5-18.7,15.8c-4,3.4-8.1,6.8-12.1,10.2c-1.7,1.4-1.7,1.5-0.3,3.1
		c1.2,1.5,2.5,2.9,3.7,4.4c2.5,3,5.1,6,7.6,9c0.8,1,1.4,1,2.3,0.1c0.7-0.7,1.5-1.3,2.2-1.9c4-3.4,7.9-6.7,11.9-10.1
		c0.3-0.2,0.6-0.7,1-0.4c0.2,0.1,0.2,0.6,0.2,0.9c0,0.5,0,1,0,1.4c-0.1,11.7,0.1,23.3-0.1,35c-0.2,9.8,0,19.5,0,29.3
		c0,2.1,0,2.2,2.1,2.2c11.4,0,22.7,0,34.1,0c1.9,0,1.9,0,1.9-1.8c0-0.6,0-1.1,0-1.7C966.4,547.8,966.4,534.4,966.4,521.1z"/>
	<path class="st2" d="M1159.8,567.5c4.2-0.6,8.9-1.2,13.7-2c1.8-0.3,3-2.3,2.8-4c-0.2-1.9-1.8-3.4-3.8-3.2c-2.2,0.2-4.4,0.5-6.7,0.8
		c-4.3,0.6-8.5,1.2-12.8,1.7c-1.9,0.2-2.5-0.1-2.6-1.2c-0.1-1.1,0.4-1.5,2.1-1.7c1.4-0.2,2.8-0.4,4.3-0.6c2-0.2,3.7-0.9,5.2-2.1
		c2-1.5,2.5-3.6,1.3-5.4c-1.2-1.8-3.1-2.1-5.3-0.8c-2.5,1.5-5,3.1-7.6,4.7c-2.2,1.4-4.4,3.3-6.8,3.9c-2.4,0.7-5.2,0.1-7.9,0.3
		c-1.8,0.1-3.2-0.5-4.5-1.7c-15.9-13.8-31.9-27.6-47.9-41.4c-6.1-5.3-12.2-10.6-18.3-15.8c-1.9-1.6-2.5-1.5-4.1,0.4
		c-1.7,2-3.4,4-5.1,6.1c-1.2,1.4-1.2,1.4,0.2,2.6c0.3,0.3,0.6,0.5,0.9,0.8c21.9,18.9,43.8,37.8,65.7,56.8c0.8,0.7,1.7,1.5,2.4,2.3
		c2.2,2.8,4.4,5.7,6.6,8.5c0.8,1,1,1.9,0.7,3.1c-0.6,2.8-1.2,5.6-1.6,8.5c-0.3,2.1,1,3.7,2.9,4c2.1,0.4,3.8-0.7,4.3-2.9
		c0.3-1.2,0.5-2.4,0.7-3.5c0.6-2.5,1.2-2.8,3.5-1.6c3.9,2.1,7.7,4.2,11.6,6.4c0.8,0.5,1.7,1,2.6,1.2c1.8,0.5,3.4-0.2,4.3-1.8
		c0.8-1.5,0.4-3.3-1.1-4.5c-0.6-0.4-1.2-0.8-1.8-1.1c-2.9-1.6-5.8-3.1-8.6-4.7c-0.5-0.3-1-0.5-1.4-0.9c-0.5-0.4-0.6-1-0.4-1.5
		c0.2-0.6,0.6-0.9,1.2-0.9c0.6,0,1.1,0,1.7,0.1c3,0.4,6,0.8,9,1.2c3.1,0.4,6.2,0.8,9.3,1.2c1.4,0.2,2.7-0.1,3.7-1.2
		c0.9-1.1,1.2-2.3,0.7-3.6c-0.6-1.5-1.6-2.3-3.3-2.4c-5.9-0.5-11.8-1-17.7-1.5c-1.8-0.1-2.4-0.6-2.4-1.7c0-1.1,0.7-1.4,2.6-1.3
		C1154.4,567,1156.8,567.2,1159.8,567.5z"/>
	<path class="st2" d="M803.5,529.5c-1.8,0-3.7,0-5.5,0c-3.7,0-4-0.6-2.2-3.8c3.6-6.5,1.8-14.7-4.3-19.1c-6-4.4-14.5-3.7-19.4,1.7
		c-2.8,3-4.9,6.5-7.1,9.9c-1.4,2.2,0,5.1,2.5,5.7c1.8,0.4,3.3-0.2,4.4-1.8c2.2-3,4.4-5.9,6.6-8.8c0.3-0.4,0.7-0.9,1.1-1.3
		c0.5-0.5,1.2-0.5,1.8-0.2c0.7,0.3,1,1.1,0.6,1.6c-0.8,1.3-0.1,2.3,0.4,3.3c4,8,8.1,16,12.1,24c0.6,1.2,1.3,1.7,2.7,1.7
		c9.3-0.2,18.5-0.8,27.7-2.1c17.1-2.4,33.6-7.1,49.4-14c10.8-4.7,21-10.5,30.6-17.3c1.6-1.2,1.6-1.2,0.4-2.6c-1.9-2.3-3.9-4.7-5.9-7
		c-1.2-1.4-1.2-1.4-2.6-0.4C868.7,518.1,837.4,527.8,803.5,529.5z"/>
	<path class="st4" d="M734.8,508.6c0,3,0.5,5.6,1.6,8c2,4.4,4.2,8.6,6.2,13c0.5,1,1,1,1.9,0.6c3.1-1.6,6.3-3.1,9.5-4.6
		c5.2-2.4,10.3,0.8,10.3,6.6c0,0.9,0.1,1.4,0.9,2c2.7,1.9,3.7,4.5,2.8,7.7c-0.2,0.9-0.1,1.5,0.6,2.1c3.6,3.5,2.4,9.4-2.3,11.5
		c-2.3,1-4.6,2.2-6.9,3.4c-2.1,1.1-2.1,0.8-1.1,2.9c1.2,2.4,2.3,4.7,3.5,7.1c0.9,1.9,0.9,1.9,2.8,0.9c10.4-5.1,20.8-10.2,31.2-15.2
		c1.7-0.8,1.7-0.8,0.8-2.7c-1.7-3.6-3.5-7.2-5.2-10.8c-3.7-7.6-7.4-15.2-11.2-22.8c-0.6-1.2-0.7-1.3-1.5-0.2c-1.6,2-3,4.1-4.6,6.1
		c-2.5,3.2-6.7,3.8-9.8,1.6c-3.1-2.3-3.8-6.4-1.5-9.8c1.9-2.8,3.8-5.5,5.8-8.2c0.5-0.7,1.2-1.3,1.7-2c0.7-1,2.6-1.2,2.4-2.7
		c-0.2-1.2-1-2.3-1.6-3.4c-0.7-1.2-1.5-2.3-2.4-3.3c-2.1-2.4-4.6-4.4-7.8-5.3c-1.6-0.4-3.1-0.3-4.6,0.5c-5.5,2.8-11,5.6-16.6,8.1
		c-2.4,1.1-3.6,2.8-4.3,5.1C735,506.1,734.7,507.5,734.8,508.6z"/>
	<path class="st2" d="M1007.9,667.8c0-17.6,0-35.2,0-52.8c0-0.6,0-1.3,0-1.9c0.1-1.1-0.5-1.4-1.4-1.4c-2.8,0-5.6,0-8.4,0
		c-3.4,0-3-0.4-3,3.1c0,35.2,0,70.4,0,105.6c0,0.5,0,1,0,1.4c-0.1,1.3,0.5,1.6,1.7,1.6c2.9-0.1,5.8,0,8.6,0c2.7,0,2.5,0.2,2.6-2.6
		C1007.9,703.2,1007.9,685.5,1007.9,667.8z"/>
	<path class="st2" d="M954.6,667.3c0,17.6,0,35.2,0,52.8c0,0.6,0,1.3,0,1.9c-0.1,1.1,0.4,1.5,1.5,1.5c2.6-0.1,5.3,0,7.9,0
		c3.6,0,3.4,0.6,3.4-3.3c0-35.1,0-70.2,0-105.3c0-0.6,0-1.1,0-1.7c0.1-1.1-0.4-1.5-1.5-1.5c-3.1,0.1-6.2,0-9.4,0
		c-1.8,0-1.9,0-1.9,1.8c0,0.6,0,1.1,0,1.7C954.6,632.6,954.6,650,954.6,667.3z"/>
	<path class="st3" d="M949.9,763.1c6.9,0,13.7,0,20.6,0c1.9,0,1.9-0.1,1.6-1.9c-0.7-5.6-1.5-11.2-2.2-16.9
		c-0.7-5.2-1.4-10.4-2.1-15.7c-0.3-2.2-0.4-2.2-2.5-2.2c-2.6,0-5.1,0-7.7,0c-3.3,0-3.3,0-4.4,3.1c-3.5,10-10.1,16.8-20.4,19.9
		c-1.8,0.5-3.7,1.1-5.6,1.4c-2.3,0.5-2.3,0.5-1.4,2.5c0.6,1.3,1.1,2.6,1.4,4.1c0.2,1.1,0.4,2.2,0.5,3.3c0.1,2.3,0.1,2.3,2.5,2.3
		c0.5,0,1,0,1.4,0C937.8,763.1,943.9,763.1,949.9,763.1z"/>
	<path class="st3" d="M1012.2,763.1c2.8,0,5.6,0,8.4,0c4.1,0,8.2,0,12.2,0c1.1,0,1.6-0.3,1.6-1.5c-0.1-3.2,0.8-6.1,2.3-9
		c0.7-1.2,0.6-1.3-0.9-1.6c-2.1-0.4-4.2-1-6.3-1.6c-6.8-2.2-12.6-5.8-16.5-12c-1.9-2.9-3.4-6-4.3-9.3c-0.4-1.3-1-1.7-2.4-1.7
		c-3,0.1-5.9,0-8.9,0c-2.6,0-2.6,0-2.9,2.5c0,0.2,0,0.5-0.1,0.7c-0.9,6.7-1.8,13.5-2.7,20.2c-0.5,3.8-1,7.6-1.5,11.4
		c-0.2,1.7-0.1,1.8,1.6,1.8c0.6,0,1.1,0,1.7,0C999.7,763.1,1006,763.1,1012.2,763.1z"/>
	<path class="st0" d="M933.3,766.2c-12.2,0-24.3,0-36.5,0c-3.4,0-3.4,0-3.4,3.5c0,3.4-0.2,3.1,3.1,3.1c24.3,0,48.6,0,72.9,0
		c0.5,0,1,0,1.4,0c1.2,0.1,1.8-0.3,1.7-1.6c-0.1-0.8,0-1.6,0-2.4c0-2.9,0-2.5-2.7-2.5C957.8,766.2,945.5,766.2,933.3,766.2z"/>
	<path class="st0" d="M1029.5,772.7c11.6,0,23.2,0,34.8,0c1.5,0,3.4,0.7,4.3-0.4c0.9-1.1,0.2-2.9,0.3-4.4c0.1-1.2-0.3-1.8-1.6-1.7
		c-0.6,0.1-1.3,0-1.9,0c-23.8,0-47.5,0-71.3,0c-1.4,0-3.2-0.7-4.1,0.4c-0.9,1-0.3,2.8-0.3,4.2c0,1.9,0,1.9,1.8,2c0.6,0,1.1,0,1.7,0
		C1005.4,772.7,1017.4,772.7,1029.5,772.7z"/>
	<path class="st5" d="M1053,763.1c4.6,0,9.1,0,13.7,0c2.4,0,2.4,0,2.2-2.4c-0.1-2.4-0.8-4.5-2-6.6c-3.3-5.9-10.4-9.2-16.9-7.7
		c-7,1.5-12.1,7.3-12.6,14.2c-0.2,2.4-0.1,2.6,2.4,2.6C1044.3,763.1,1048.6,763.1,1053,763.1z"/>
	<path class="st5" d="M909.2,763.1c3.8,0,7.5,0,11.3,0c5,0,5,0,3.9-4.9c-1.7-7.7-8.9-12.9-16.9-12.2c-7.7,0.7-13.9,7.4-14.1,15.1
		c0,1.7,0.1,1.9,1.9,1.9C900,763.1,904.6,763.1,909.2,763.1z"/>
	<path class="st2" d="M740.9,543.3c0.8,0,2-0.1,3-0.6c5-2.4,10.1-4.8,15.1-7.3c2.2-1.1,2.9-3.3,1.9-5.3c-1-2.1-3.2-2.8-5.5-1.8
		c-1.5,0.7-2.9,1.4-4.3,2.1c-3,1.5-6,2.9-9,4.4c-0.8,0.4-1.6,0.5-2.2-0.1c-0.5-0.6-0.5-1.3,0-2c0.4-0.5,0.4-1,0.2-1.5
		c-0.6-1.2-1.2-2.4-1.8-3.7c-0.3-0.6-0.6-0.7-1.3-0.4c-3.5,1.7-5.5,5.7-4.7,9.4C733.1,540.5,736.5,543.3,740.9,543.3z"/>
	<path class="st0" d="M981.3,486.6c3.5,0,7,0,10.5,0c1.2,0,1.7-0.4,1.7-1.7c-0.1-2.6,0.3-5.3,0.5-7.9c0.2-1.8,0.2-1.9-1.7-1.7
		c-7.4,0.9-14.8,0.9-22.2,0.2c-1.4-0.1-1.4-0.1-1.2,1.4c0.2,2.6,0.6,5.2,0.5,7.9c0,1.6,0.1,1.7,1.8,1.7
		C974.6,486.7,978,486.6,981.3,486.6z"/>
	<path class="st2" d="M765.3,539.8c-0.1-1.3-0.7-2.4-1.8-3.2c-1.1-0.7-1.5,0.6-2.2,0.9c-0.2,0.1-0.4,0.2-0.6,0.3
		c-5.7,2.7-11.2,5.8-17,8.1c-1,0.4-1.2,1-1,1.8c0.4,2.6,3.1,4.1,5.7,2.9c5-2.3,9.9-4.8,14.8-7.2
		C764.5,542.7,765.2,541.4,765.3,539.8z"/>
	<path class="st5" d="M1083.6,386.2c3.6,0,6.7-3.1,6.7-6.7c0-3.5-3.2-6.7-6.8-6.7c-3.6,0-6.7,3.2-6.7,6.8
		C1076.9,383.3,1079.9,386.2,1083.6,386.2z"/>
	<path class="st2" d="M753.9,557.8c0.3-0.1,0.6-0.1,0.9-0.2c3.8-1.6,7.6-3.4,11.2-5.4c1.9-1.1,2.2-3.7,1-5.5
		c-0.6-0.9-1.2-1.2-2.4-0.6c-4.4,2.3-8.9,4.4-13.3,6.6c-1.6,0.8-1.8,1.4-0.9,3C751.1,557,752.3,557.6,753.9,557.8z"/>
	<path class="st4" d="M737.5,497.3c0.3-0.1,0.6-0.3,0.9-0.4c5.2-2.6,10.5-5.1,15.7-7.7c0.5-0.2,1.1-0.3,1.2-1c0.2-1.4-1.5-2.6-2.7-2
		c-4.1,2-8.2,4-12.2,6c-1.3,0.6-2.6,1.3-3.9,1.9c-0.7,0.3-0.6,0.9-0.3,1.4C736.6,496.1,736.6,497.1,737.5,497.3z"/>
	<path class="st0" d="M220.7,771.5c7.3,0,14.6,0,21.8,0c0.6,0,1.3,0,1.9,0c0.9,0.1,0.9,0.8,0.9,1.4c0,0.6,0.1,1.3-0.9,1.4
		c-0.3,0-0.6,0-1,0c-7.6,0-15.2,0-22.8,0C220.7,773.4,220.7,772.5,220.7,771.5z"/>
	<path class="st0" d="M389.6,592.7c0.2-0.8-0.3-1.4-0.5-2.1c-1-3.2,0.2-6.2,2.9-7.5c2.9-1.3,6.1-0.2,7.8,2.8
		c0.9,1.5,1.6,3.1,2.4,4.7c0.7,1.4,1.3,2.7,2,4.1c0.8,1.5,0.8,1.5,2,0.4c1.1-1,2.3-1.7,3.8-1.7c2.5-0.1,4.7,1.1,5.7,3.3
		c1,2.3,0.8,4.6-0.9,6.5c-1.3,1.4-2.7,2.7-4.1,4c-0.8,0.7-0.7,1.2-0.2,2c5.7,9.4,12.4,18,20.3,25.8c11.1,11,23.7,19.7,38.4,25.3
		c9.9,3.8,20.1,5.6,30.7,6c0.6,0,1.1,0,1.7,0c0.1,0,0.3-0.1,0.3-0.2c0-0.1,0-0.3-0.1-0.4c-0.4-0.3-0.8-0.5-1.2-0.7
		c-24.6-14.1-40.4-34.9-47.4-62.3c-0.6-2.1-0.5-2.2-2.8-2.4c-11.6-1.3-20.4-10.8-20.5-22.6c-0.1-13.8,10.3-21.7,19.6-23.2
		c1.3-0.2,3,0.2,3.8-0.8c0.7-0.9,0.1-2.5,0.1-3.7c0-8,0.3-16,1.8-23.9c0.5-2.4,1.2-4.8,2-7.2c3.5-9.9,10.3-16,20.8-17.6
		c2.4-0.4,4.7-0.9,7-1.4c4.5-1.1,7.1-4.1,8-8.6c0.4-2,0.5-3.9,0.3-6c-0.3-3.9,0.1-7.9,1.4-11.6c3.3-9.3,10.2-14.2,19.6-16.1
		c4.9-1,9.9-0.4,14.8,0.2c10.6,1.4,21.1,2.4,31.8,2c9.6-0.4,19.1-1.6,28.2-5.1c2.3-0.9,4.6-1.9,6.7-3.2c2.9-1.7,5.6-3.8,7.6-6.5
		c1.3-1.7,2.2-1.6,3.2,0.2c2.2,3.8,3.4,7.9,3.2,12.4c-0.2,4.3-1.5,8.1-4.1,11.6c-0.3,0.3-0.9,0.7-0.5,1.2c0.3,0.4,0.9-0.1,1.3-0.2
		c2.2-0.8,4.2-1.9,6.2-3.1c1.9-1.2,2.6-1,3.4,1.2c2.7,7.2,1.2,13.7-3.8,19.4c-1.4,1.6-3.1,3-5,4.1c-0.3,0.2-0.6,0.3-0.5,0.7
		c0.1,0.4,0.5,0.4,0.8,0.4c2,0.2,4-0.2,5.9-0.6c0.8-0.2,1.5-0.5,2.3-0.7c0.8-0.2,1.7-0.8,2.5-0.1c0.9,0.8,0.5,1.8,0.3,2.7
		c-0.6,2.8-1.7,5.3-3.2,7.7c-0.7,1.2-1.5,2.2-2.3,3.3c-1.2,1.6-1.2,1.6,0.3,3c15.6,14.4,25.9,31.9,29.7,52.8
		c6.1,32.8-2.3,61.6-24.9,86.2c-6.8,7.4-14.7,13.3-23.5,18.1c-0.3,0.2-0.6,0.3-0.8,0.5c-0.2,0.1-0.4,0.4-0.4,0.5
		c0.1,0.4,0.5,0.2,0.7,0.2c7.4-0.4,14.8-1.4,22-3.4c16.3-4.7,30.4-13.3,42.8-24.8c7.9-7.2,14.7-15.4,20.6-24.3
		c1.1-1.7,2-3.4,2.7-5.3c0.7-1.9,0.7-1.9-1-2.9c-3.7-2.2-6-5.4-6.8-9.7c-1.5-8.2,4.8-15.8,13.1-15.9c2.2,0,4.3,0.5,6.4,1
		c1.4,0.3,1.6,0.1,1.1-1.3c-0.1-0.4-0.3-0.8-0.4-1.1c-0.9-2.4-0.9-2.4-3.3-1.9c-10.4,1.8-21-2.8-26.5-11.7
		c-5.6-9.1-5.2-20.5,1.1-29.1c6-8.2,16.7-12.1,26.6-9.7c10.3,2.5,17.9,10.5,19.5,20.8c1.9,11.4-3.5,22.1-13.7,27.4
		c-1.8,0.9-1.8,0.9-1.1,2.8c0.4,1.1,0.9,2.2,1.3,3.4c0.3,0.7,0.6,1,1.4,0.8c1-0.3,2-0.5,3-0.8c3.8-0.9,7,0.3,9.3,3.4
		c2.3,3,2.4,6.4,0.6,9.7c-0.6,1.2-0.8,2-0.1,3.2c1,1.7,0.8,3.6-0.3,5.2c-0.6,0.9-0.8,1.6-0.4,2.6c0.8,2.1,0.2,3.9-1.2,5.6
		c-0.4,0.5-1.1,0.8-0.7,1.6c0.4,1,0.5,2.2,1.3,3c0.5,0.5,1.2,0.2,1.8,0.1c2.6-0.1,4.9,0.7,6.7,2.6c3.6,3.6,3.7,9.3,0.1,12.9
		c-3.5,3.5-9.2,3.6-12.8,0.2c-3.7-3.5-3.8-9.2-0.3-13c0.5-0.5,1.6-0.8,1.3-1.8c-0.3-1.2-0.7-2.3-1.3-3.3c-0.3-0.6-1.8-0.2-2.2,0.5
		c-0.2,0.4-0.4,0.9-0.5,1.4c-1.4,6.8-5,12.5-9.1,18.1c-13,17.8-28.8,32.5-48.3,43.1c-13.9,7.6-28.8,12.2-44.6,13.8
		c-7.3,0.7-14.7,0.8-22,0.1c-2.8-0.3-2.7-0.2-2.6,2.5c0.6,12,1.2,24,1.8,35.9c0.1,2.5,0.3,4.9,0.4,7.4c0.4,7.2,5.8,12.8,13.1,13.1
		c0.5,0,1,0,1.4,0c10.1,0,20.2,0,30.2,0c2.4,0,2.4,0,2.7-2.2c1.6-12,3.3-24.1,4.9-36.1c0.2-1.8,0.3-1.9,2-1.9c3.2,0,6.4,0,9.6,0
		c1.7,0,1.7,0.1,1.8,1.8c0.5,8.2,1,16.4,1.4,24.7c0.6,10.3,1.2,20.6,1.8,30.9c0.1,2.6,0.2,5.1,0.4,7.7c0.1,1-0.3,1.3-1.2,1.3
		c-0.6,0-1.3,0-1.9,0c-69.8,0-139.7,0-209.5,0c-3.6,0-3.3,0.5-3-3.2c0.6-10.1,1.2-20.3,1.8-30.4c0.6-10.2,1.2-20.4,1.8-30.6
		c0.1-2,0.2-2,2.2-2c2.9,0,5.8,0,8.6,0c2.2,0,2.2,0,2.5,2.1c0.5,3.6,1,7.3,1.5,10.9c1.1,8.5,2.3,16.9,3.4,25.4
		c0.2,1.3,0.6,1.9,1.9,1.7c0.2,0,0.3,0,0.5,0c10.3,0,20.6,0,31,0c6.3,0,11.3-3.5,13.3-9.2c0.5-1.3,0.7-2.6,0.8-4
		c0.6-11.3,1.1-22.5,1.6-33.8c0.1-3,0.3-6.1,0.5-9.1c0.1-2.5,0.1-2.5-2.4-2.5c-7,0-13.9-0.6-20.8-1.8c-19-3.3-36.2-11-51.6-22.5
		c-15.8-11.7-28.9-25.9-39-42.8c-1.8-3-3.7-5.1-7.6-4.8c-2.8,0.2-5.7-0.2-8.6-0.4c-2.6-0.1-4.5-1.3-5.4-3.7c-1-2.6-0.3-4.9,1.8-6.7
		c0.9-0.7,1-1.1-0.1-1.6c-0.9-0.4-1.7-0.8-2.6-1.3c-2.6-1.5-3.7-4.2-2.9-6.9c0.8-2.6,3.1-4.2,6.1-4.1c0.1,0,0.2,0,0.2,0
		c0.6,0.1,1.4,0.4,1.8,0.1c0.5-0.3,0.1-1.2,0.1-1.8c0.1-3,2.1-5.3,5.1-5.8c1.9-0.3,3.5,0.4,4.8,1.6
		C385.9,589.3,387.8,591,389.6,592.7c0-0.1,0.1-0.2,0.1-0.1C389.7,592.9,389.9,592.6,389.6,592.7z"/>
	<path class="st2" d="M641.7,579.7c-0.1-2.8-0.2-5.6-0.4-8.4c-1.6-16.9-7.3-32.2-17-46c-4-5.6-8.6-10.8-13.7-15.4
		c-1.3-1.2-1.3-1.2-2.5,0c-1.5,1.5-3.2,2.8-5,4.1c-11.5,8-24.4,11.3-38.2,11.6c-14.8,0.3-29-2.8-42.8-8.2
		c-6.4-2.5-12.6-5.5-18.6-8.9c-1.6-0.9-1.7-0.9-2,1c0,0.2,0,0.5-0.1,0.7c-3,16.5-11,29.7-25.2,38.9c-7.3,4.8-15.1,8.1-24.2,8.2
		c-8.7,0.1-16.3,6.3-18.7,14.4c-2.4,8.1,0.6,16.9,7.5,21.9c3.3,2.4,7,3.7,11.2,3.8c2.7,0,2.7,0.1,3.3,2.8c0,0.1,0,0.2,0,0.2
		c4.4,19.2,13.6,35.7,28.3,48.8c22.7,20.4,49.3,28.3,79.4,23.5c20.6-3.3,38.1-12.8,52.4-27.8C633,626.6,641.3,604.8,641.7,579.7z"/>
	<path class="st0" d="M549.8,730.5c3.7,0,6.6-2.2,7.5-5.8c0.6-2.4,0.1-4.6-1.3-6.6c-0.9-1.4-0.9-1.4,0.5-1.9
		c0.1-0.1,0.3-0.1,0.4-0.2c3.2-1.3,5-4.3,4.8-7.8c-0.3-3.4-2.6-6.1-6-6.9c-1.5-0.4-2.9-0.3-4.2,0.2c-1,0.4-1.3,0.1-1.3-0.9
		c0.1-1.7-0.3-3.3-1.4-4.7c-1.9-2.7-5.2-3.8-8.5-3c-3.2,0.8-5.3,3.6-5.7,7.2c-0.1,1.6-0.1,1.6-1.7,1.3c-0.3-0.1-0.6-0.2-0.9-0.2
		c-5.2-0.8-9.8,4.1-8.7,9.3c0.7,3.1,2.6,5.1,5.6,6c0.9,0.2,1.1,0.6,0.4,1.3c-0.3,0.3-0.5,0.6-0.7,1c-1.7,2.7-1.8,5.4-0.2,8.2
		c1.5,2.7,4,3.9,7,3.8c2.7-0.1,4.8-1.3,6.2-3.5c0.7-1.1,0.9-0.9,1.5,0C544.8,729.3,547,730.5,549.8,730.5z"/>
	<path class="st3" d="M663.6,550.9c0.1,1.3,0.1,2.6,0.3,3.8c0.3,1.9,0.4,2,2.3,1.3c13-4.8,25.9-9.6,38.9-14.4
		c1.8-0.7,1.8-0.7,0.8-2.3c-4.5-7.2-11.2-11-19.6-11C673.9,528.3,663.8,538.6,663.6,550.9z"/>
	<path class="st2" d="M376.3,609c-2.6-0.1-3.9,0.8-4,2.6c-0.1,1.8,1,2.8,3.5,3c3.4,0.2,6.9,0.5,10.3,0.6c2.6,0,4.7,0.5,5.8,3.2
		c0.5,1.1,1.2,1,2.1,0.5c4.2-2.4,8.4-4.6,12.6-7c1.4-0.8,1.4-0.8,0.5-2.3c-1.1-1.9-1.1-2.2,0.5-3.7c1.7-1.6,3.4-3.2,5-4.9
		c1.1-1.1,1-2.6,0-3.7c-1-1.1-2.4-1.3-3.7-0.4c-0.8,0.6-1.5,1.4-2.3,2.1c-1.9,1.8-2.7,1.7-3.9-0.6c-1.6-3.2-3.2-6.5-4.8-9.7
		c-0.4-0.7-0.7-1.4-1.2-2.1c-0.9-1.1-2.3-1.3-3.5-0.7c-1.1,0.6-1.7,2-1.3,3.3c0.2,0.6,0.5,1.2,0.8,1.8c1.2,2.4,2.4,4.7,3.6,7.1
		c0.5,1,1.3,2.1,0,3c-1.3,0.9-2.1-0.2-2.9-0.9c-3.5-3.1-7-6.3-10.5-9.5c-0.4-0.4-0.8-0.8-1.3-1.1c-1.3-0.9-2.8-0.8-3.9,0.4
		c-1,1.1-0.9,2.7,0.3,3.9c0.3,0.3,0.7,0.6,1.1,0.9c3.2,2.7,6.5,5.5,9.7,8.2c0.5,0.4,1,0.8,1.4,1.3c0.6,0.6,0.6,1.3,0.1,2
		c-0.5,0.6-1.2,0.8-1.9,0.3c-0.7-0.5-1.3-0.9-1.9-1.5c-3.9-3.9-8.9-5.9-13.7-8.3c-1.7-0.9-3.3-0.3-4,1.3c-0.7,1.4-0.1,2.8,1.5,3.7
		c1.8,1,3.6,1.8,5.3,2.7c3.1,1.6,6.1,3.2,9.2,4.7c0.9,0.5,1.4,1.2,0.9,2.1c-0.5,1-1.4,1-2.2,0.6c-1.1-0.5-2.1-1.1-3.2-1.6
		C379,609.7,377.7,608.7,376.3,609z"/>
	<path class="st3" d="M687.4,573.9c8.2-0.3,15-4.4,19.3-12.4c2-3.8,2.9-7.9,2.5-12.3c-0.1-1.5-0.3-1.5-1.7-1
		c-12.9,4.8-25.8,9.5-38.6,14.3c-1.7,0.6-1.8,0.7-0.6,2.2C672.9,570.7,679,573.8,687.4,573.9z"/>
	<path class="st2" d="M688.5,582.9c-9,0-14.2,8.7-10.2,15.9c1.4,2.5,3.5,4.1,6.1,5.1c1.8,0.7,2,1.1,1.4,2.8c-0.3,0.9-0.6,1.8-1,2.7
		c-0.6,1.2-0.3,1.8,0.9,2.4c4,2.1,8,4.4,12,6.6c0.3,0.2,0.7,0.4,1.1,0.6c0.5,0.2,0.9,0.2,1.1-0.5c0.3-1.1,0.7-2.3,1-3.4
		c0.3-1.2,0.3-1.2-1.1-1.1c-4,0.4-6.4-1.5-6.7-5.6c-0.1-0.8-0.3-1.3-0.9-1.8c-1.7-1.3-2.4-3.1-2-5.3c0.2-1-0.2-1.6-0.7-2.4
		c-1.4-1.8-1.5-3.8-0.5-5.9c0.4-0.8,0.9-1.4-0.3-2.1c-0.6-0.3-0.5-1.2-0.2-1.7c0.3-0.7,1-0.8,1.6-0.7c0.6,0.1,1.2,0.3,1.9,0.4
		c1.4,0.3,2.8,0.8,4.2,1c1.4,0.3,2.6-0.5,3-1.8c0.4-1.3-0.1-2.6-1.5-3.1C694.3,584.1,691.1,583.2,688.5,582.9z"/>
	<path class="st2" d="M695.7,593c-0.4,0-0.8-0.1-1.2-0.1c-1.3,0-2.3,0.4-3,1.6c-0.5,1-0.3,1.9,0.3,2.7c0.9,1.1,1.9,1.1,3.2,0.8
		c3.7-1,7.4-1.9,11.1-2.9c3.7-1,5.5-4.4,4.3-7.8c-1.2-3.4-5-5-8.4-3.5c-0.3,0.1-0.7,0.2-0.6,0.6c0.2,0.9,0.5,1.8,0.9,2.7
		c0.2,0.6,0.8,0.3,1.3,0.3c1-0.1,1.8,0.2,1.9,1.3c0.1,1.1-0.6,1.5-1.6,1.7c-1.6,0.4-3.2,0.9-4.5,2C698.4,593.1,697,593.1,695.7,593z
		"/>
	<path class="st5" d="M719.5,624c0-3.4-2.7-6.1-6.1-6.1c-3.3,0-6.1,2.8-6.1,6.1c0,3.4,2.8,6.1,6.1,6.1
		C716.8,630.1,719.5,627.4,719.5,624z"/>
	<path class="st2" d="M696.2,604.7c3.8-1,8.1-2.2,12.4-3.4c1.1-0.3,1.5-1.4,1.4-2.5c-0.1-1.2-0.6-1.5-1.9-1.2
		c-4.7,1.2-9.3,2.7-14.1,3.5c-0.8,0.2-1,0.6-1,1.3C693.2,603.7,694.3,604.7,696.2,604.7z"/>
	<path class="st2" d="M699.3,610.9c2.4-0.7,5.4-1.4,8.3-2.3c1.1-0.3,1.6-1.3,1.5-2.5c-0.1-1.1-0.5-1.6-1.7-1.3
		c-3.4,0.8-6.8,1.7-10.2,2.6c-1.3,0.3-1.5,1-0.8,2.1C696.9,610.6,697.7,611,699.3,610.9z"/>
	<path class="st0" d="M764.3,774.5c-21.9,0-43.8-0.1-65.7,0c-5.6,0-12.2-3.6-14.3-10.4c-1.9-6.1,0.3-12.7,5.4-16.4
		c0.3-0.2,0.5-0.4,0.8-0.5c1.1-0.8,1.2-0.9,0-1.7c-7.7-5-8.5-14.7-4.3-20.9c2.6-3.8,6.2-6,10.7-6.4c1.2-0.1,2.4-0.2,3.6-0.2
		c42.2,0,84.5,0,126.7,0c7,0,13.4,1.7,19,6.1c8.9,7,12.9,18.8,9.7,29.7c-3.4,11.6-11.4,18.4-23.2,20.5c-1.4,0.3-2.9,0.2-4.3,0.2
		C807,774.5,785.7,774.5,764.3,774.5z"/>
	<path class="st4" d="M783.1,721c-15.8,0-31.5,0-47.3,0c-2.4,0-2.4,0-2.4,2.3c0,6.5,0,13,0,19.4c0,1.9,0,1.9,1.8,1.9
		c0.6,0,1.1,0,1.7,0c14.9,0,29.8,0,44.6,0c15,0,29.9,0,44.9,0c0.7,0,1.4,0,2.2,0.1c0.9,0.1,1.5,0.6,1.5,1.6c0,1-0.7,1.4-1.6,1.4
		c-0.8,0-1.6,0-2.4,0c-29.4,0-58.9,0-88.3,0c-0.8,0-1.6,0-2.4,0c-2,0.1-2,0.1-2,2c0,6.2,0,12.5,0,18.7c0,3.3-0.3,3,2.9,3
		c30.7,0,61.4,0,92.2,0c1.5,0,3-0.1,4.5-0.4c18.8-3.3,27.3-25.7,15.3-40.6c-5.3-6.5-12.2-9.5-20.6-9.5
		C812.9,721.1,798,721,783.1,721z"/>
	<path class="st4" d="M718.5,732.9c0-3.3,0-6.5,0-9.8c0-2,0-2-1.9-2c-5.9,0-11.8,0-17.7,0c-1.8,0-3.5,0.3-5.1,1.1
		c-5,2.2-7.8,7.5-6.9,13c0.8,5.1,5.5,9.5,10.5,9.6c6.5,0.2,13.1,0,19.6,0.1c1.2,0,1.5-0.4,1.5-1.5
		C718.4,739.8,718.5,736.3,718.5,732.9z"/>
	<path class="st4" d="M718.5,759.6c0-3.3,0-6.5,0-9.8c0-1.9,0-2-2-2c-4.1,0-8.1,0-12.2,0c-2.4,0-4.8-0.1-7.2,0.2
		c-5.3,0.5-10.8,5.5-10.4,12.6c0.4,5.8,5.3,10.9,11.2,11c6.3,0.1,12.6,0,18.9,0c1.2,0,1.7-0.4,1.7-1.7
		C718.4,766.4,718.5,763,718.5,759.6z"/>
	<path class="st0" d="M302.4,774.6c-11.9,0-23.8,0-35.8,0c-0.6,0-1.3,0-1.9,0c-0.9,0-1.3-0.4-1.3-1.3c0-0.5,0-1,0-1.4
		c0-11.8,0-23.5,0-35.3c0-0.2,0-0.5,0-0.7c0-2.1,0-2.1,2.2-2.1c5.2,0,10.4,0,15.6,0c2.3,0,2.3,0,2.3-2.4c0-10.4,0-20.8,0-31.2
		c0-0.6,0-1.1,0-1.7c0.1-1.7,0.1-1.7,1.8-1.7c5,0,10.1,0,15.1,0c1,0,1.9,0,2.9,0c0.8,0,1.2-0.4,1.2-1.1c0-0.6,0-1.3,0-1.9
		c0-10.8,0-21.6,0-32.4c0-0.5,0-1,0-1.4c0-2,0-2,2-2c2.4,0,4.8,0,7.2,0c9.5,0,19,0,28.6,0c0.6,0,1.3,0,1.9,0c0.8,0,1.2,0.3,1.2,1.1
		c0,0.5,0,1,0,1.4c0,12.2,0,24.5,0,36.7c0,0.2,0,0.5,0,0.7c-0.1,1.8-0.1,1.8-1.9,1.8c-5.8,0-11.7,0-17.5,0c-2.5,0-2.5,0-2.5,2.4
		c0,9.8,0,19.7,0,29.5c0,2.2,0,2.2,2.3,2.2c4.6,0,9.1,0,13.7,0c2,0,2,0,2,2c0,12.2,0,24.5,0,36.7c0,2,0,2.1-2.2,2.1
		C326.9,774.6,314.7,774.6,302.4,774.6z"/>
	<path class="st1" d="M338.4,754.2c0-5.2,0-10.4,0-15.6c0-1.9,0-2-1.8-2c-10.5,0-20.9,0-31.4,0c-1.9,0-1.9,0.1-1.9,1.9
		c0,10.4,0,20.8,0,31.2c0,1.9,0,1.9,2.1,1.9c10.4,0,20.8,0,31.2,0c1.8,0,1.9,0,1.9-1.8C338.5,764.6,338.4,759.4,338.4,754.2z"/>
	<path class="st6" d="M266.4,754.2c0,5.2,0,10.4,0,15.6c0,1.8,0,1.9,1.9,1.9c10.1,0,20.3,0,30.4,0c1.7,0,1.7-0.1,1.7-1.8
		c0-10.5,0-20.9,0-31.4c0-1.7-0.1-1.8-1.8-1.8c-10.1,0-20.3,0-30.4,0c-1.8,0-1.8,0.1-1.9,1.9C266.3,743.8,266.4,749,266.4,754.2z"/>
	<path class="st4" d="M307.5,678.7c0,5.2,0,10.4,0,15.6c0,2.4,0,2.4,2.3,2.4c10.1,0,20.3,0,30.4,0c2.2,0,2.2,0,2.2-2.3
		c0-10.5,0-21.1,0-31.6c0-2.1,0-2.2-2.1-2.2c-10.3,0-20.6,0-30.9,0c-1.9,0-2,0-2,2C307.5,668,307.5,673.3,307.5,678.7z"/>
	<path class="st3" d="M303.5,699.6c-5,0-10.1,0-15.1,0c-1.9,0-2,0-2,1.8c0,10.2,0,20.5,0,30.7c0,1.3,0.4,1.7,1.7,1.7
		c10.2,0,20.5,0,30.7,0c1.7,0,1.7-0.1,1.7-1.8c0-10.2,0-20.3,0-30.5c0-1.8,0-1.9-1.9-1.9C313.6,699.5,308.6,699.6,303.5,699.6z"/>
	<path class="st0" d="M389.7,774.5c-3,0-5.9,0-8.9,0c-9-0.1-16.5-7.6-16.6-16.5c-0.1-7.7,3.2-13.2,10-16.6c1-0.5,1.4-0.8,0.6-1.9
		c-1-1.2-1.7-2.7-2.1-4.3c-0.2-0.8-0.7-1.2-1.5-1.1c-1.1,0.1-2.2,0-3.4,0c-1.9-0.1-3.2-1.2-3.2-2.8c-0.1-1.8,1.1-3,3.2-3.1
		c1-0.1,2.1-0.1,3.1,0c1.1,0.1,1.6-0.4,1.8-1.4c0.9-3.1,2.6-5.7,5.2-7.6c4.8-3.5,10.1-4.1,15.4-1.5c5.4,2.6,8.2,7.1,8.4,13.2
		c0.1,2.7-0.6,5.2-1.9,7.6c-0.7,1.4-0.7,1.4,0.9,1.7c0.9,0.2,1.7,0.3,2.6,0.6c7.3,2.2,12.6,9.1,12.2,17.3c-0.3,8.2-6.3,15-14.1,16.3
		c-2.9,0.5-5.9,0.1-8.9,0.2C391.6,774.5,390.6,774.5,389.7,774.5z"/>
	<path class="st3" d="M389.7,771.5c2.9,0,5.8,0,8.6,0c0.9,0,1.8-0.1,2.6-0.2c7.2-1.5,12.1-8.2,11.4-15.2c-0.8-7.6-6.7-13-14.3-13.1
		c-1,0-1.9,0.1-2.9-0.1c-1.4-0.2-1.8-1.4-1-2.5c0.4-0.5,0.9-0.9,1.3-1.4c4.4-4.8,4.2-12-0.6-16.6c-4.7-4.5-12-4.4-16.6,0.3
		c-4.6,4.7-4.5,12,0.1,16.6c2.5,2.5,2.3,3-1.1,4c-6.7,1.9-11.1,8.7-10.3,15.7c0.9,7.1,7,12.5,14.1,12.5
		C384.1,771.5,386.9,771.5,389.7,771.5z"/>
	<path class="st0" d="M1111.8,774.4c-3.5,0-7,0-10.6,0c-1,0-1.6-0.2-1.6-1.4c0-1.2,0.6-1.5,1.6-1.5c7.1,0,14.2,0,21.3,0
		c1.2,0,1.5,0.5,1.5,1.6c0,1.1-0.6,1.3-1.5,1.3C1119,774.4,1115.4,774.4,1111.8,774.4z"/>
	<path class="st1" d="M1042.7,412.1c-5.7,0.4-12.3-4.5-12.3-12.3c0-6.7,5.5-12.2,12.2-12.2c6.8,0,12.4,5.5,12.3,12.4
		C1054.9,406.7,1049.5,412.1,1042.7,412.1z"/>
	<path class="st1" d="M907.1,386.5c6.8-0.1,12.4,5.5,12.4,12.3c0,6.7-5.5,12.2-12.2,12.2c-6.8,0.1-12.4-5.4-12.3-12.3
		C895,391.9,900.3,386.6,907.1,386.5z"/>
	<path class="st0" d="M974,394.8c-13.9-0.4-24.5-6.8-32.2-18.2c-1-1.5-1.7-3-2.6-4.6c-0.5-0.9-0.7-1.8,0.4-2.5
		c0.8-0.5,1.6-0.1,2.3,1.1c1.8,3.4,3.9,6.6,6.5,9.5c15.4,17,41,15.2,54-3.6c1.1-1.6,2.1-3.4,3.1-5.1c0.3-0.5,0.5-1,1-1.3
		c0.9-0.6,2.1,0,2.2,1c0.1,0.7-0.2,1.2-0.5,1.8c-5.7,10.8-14.1,18.3-26.2,21.1C979.3,394.6,976.7,394.9,974,394.8z"/>
	<path class="st0" d="M914.1,379.4c-3.6,0-6.4-2.9-6.4-6.4c0.1-3.5,3-6.3,6.6-6.2c3.4,0.1,6.2,2.9,6.2,6.3
		C920.5,376.7,917.7,379.4,914.1,379.4z"/>
	<path class="st0" d="M1026.3,380.2c-3.5-0.1-6.4-3.1-6.3-6.5c0.1-3.5,3.2-6.4,6.6-6.2c3.4,0.1,6.2,3,6.2,6.4
		C1032.8,377.3,1029.8,380.3,1026.3,380.2z"/>
	<path class="st0" d="M912.8,348.2c0.7,0,1.8,0.1,2.9,0.4c1,0.2,1.7,0.7,1.6,1.7c-0.1,1.1-1,1.4-1.9,1.2c-1.7-0.2-3.3-0.4-5-0.2
		c-7.2,1-11.9,4.9-14.3,11.8c-0.2,0.5-0.3,1.1-0.5,1.6c-0.3,0.8-0.9,1.3-1.8,1.1c-0.8-0.2-1.1-0.9-1-1.7c0.1-0.6,0.2-1.3,0.4-1.9
		C895.5,353.8,903.5,348.1,912.8,348.2z"/>
	<path class="st0" d="M1033,349.4c10.3,0.2,18.8,7.8,19.7,17.5c0.2,1.8-0.1,2.6-1.2,2.7c-1.1,0.1-1.5-0.5-1.8-2.3
		c-1.1-8.5-8-14.6-16.5-14.8c-0.6,0-1.1,0-1.7-0.1c-0.8-0.1-1.3-0.7-1.3-1.5c0-0.7,0.4-1.2,1.1-1.3
		C1032.1,349.4,1032.7,349.4,1033,349.4z"/>
	<path class="st0" d="M975.8,361c-0.1,1.3-0.8,1.6-1.8,1.7c-3,0.4-6,0.9-9,1.3c-3,0.4-3,0.4-1.3,2.9c1.2,1.8,2.4,3.6,3.6,5.4
		c0.3,0.5,0.7,0.9,0.7,1.5c0.1,0.6,0,1.1-0.6,1.5c-0.6,0.4-1.2,0.4-1.8-0.1c-0.3-0.3-0.5-0.6-0.8-0.9c-2.1-3.1-4.2-6.2-6.2-9.4
		c-1.3-1.9-0.8-2.9,1.5-3.2c4.3-0.6,8.5-1.3,12.8-1.9c0.5-0.1,1.1-0.1,1.7,0C975.4,359.9,975.7,360.4,975.8,361z"/>
	<path class="st0" d="M957.4,757.4c-4.6,0-8.3-3.5-8.4-8.1c-0.1-4.6,3.7-8.4,8.3-8.4c4.5,0,8.3,3.8,8.3,8.2
		C965.6,753.6,961.9,757.3,957.4,757.4z"/>
	<path class="st0" d="M1013.4,749.2c0,4.6-3.6,8.2-8.2,8.2c-4.7,0-8.3-3.7-8.2-8.4c0.1-4.5,3.8-8.1,8.4-8.1
		C1009.9,740.9,1013.5,744.6,1013.4,749.2z"/>
	<path class="st0" d="M552.8,602c-10.2,0-17.3-10.1-13.8-19.8c0.7-1.9,1.1-3.6,0.4-5.5c-0.1-0.3-0.2-0.6-0.2-0.9
		c0.2-1.9-0.9-2.4-2.4-2.9c-3.4-1.1-6.5-2.6-9.5-4.5c-0.3-0.2-0.7-0.4-1-0.6c-0.8-0.6-1.4-1.2-0.7-2.2c0.6-0.9,1.5-0.7,2.3-0.2
		c2.6,1.7,5.4,3.1,8.3,4.2c0.7,0.3,1.3,0.5,2,0.8c0.8,0.3,1.4,0.1,1.7-0.8c0.1-0.3,0.2-0.6,0.3-0.9c2.5-5.5,6.8-8.4,12.8-8.5
		c6,0,10.3,2.9,12.9,8.3c1.1,2.4,1.1,2.4,3.5,1.6c3.2-1.1,6.2-2.6,9-4.4c1.6-1,2.4-1,3-0.1c0.5,0.8,0.2,1.6-1.4,2.6
		c-3.5,2.2-7.1,3.9-11.1,5.1c-1.3,0.4-1.8,1-2.1,2.4c-0.5,2.6-0.2,4.8,0.5,7.4C570.4,594.2,561.4,602.5,552.8,602z"/>
	<path class="st2" d="M564.1,587.3c-0.1-0.8-0.1-1.3-0.1-1.9c0-0.2-0.1-0.5-0.1-0.7c-0.2-0.6-0.5-1-1.2-0.5
		c-0.3,0.3-0.6,0.5-0.9,0.8c-3.5,2.6-7.4,3.6-11.7,2.6c-2.3-0.5-4.3-1.6-6.1-3.1c-1.3-1-1.4-1-1.7,0.7c-0.7,4.3,0.7,7.9,4.1,10.6
		c3.5,2.7,7.5,3.2,11.5,1.2C561.9,595.1,563.9,591.7,564.1,587.3z"/>
	<path class="st3" d="M553.1,581.1c3.9,0,7-3.1,7-7c0-3.9-3.3-7.2-7.2-7.1c-3.8,0.1-6.9,3.3-6.9,7.2
		C546.1,578.1,549.2,581.1,553.1,581.1z"/>
	<path class="st0" d="M601.8,558.9c-3.7,0-6.6-2.7-6.6-6.4c-0.1-3.8,2.8-6.7,6.6-6.7c3.7,0,6.5,2.8,6.5,6.5
		C608.2,556.1,605.5,558.9,601.8,558.9z"/>
	<path class="st0" d="M508.3,558.9c-3.7,0-6.6-2.7-6.7-6.3c-0.1-3.8,2.8-6.7,6.6-6.7c3.6,0,6.6,2.9,6.6,6.5
		C514.8,556,512,558.9,508.3,558.9z"/>
	<path class="st0" d="M510.7,533.1c-8.9,0-16.4,6.3-18,15.2c-0.1,0.6-0.2,1.3-0.4,1.9c-0.2,0.7-0.7,1-1.4,1
		c-0.7-0.1-1.2-0.5-1.3-1.2c-0.1-0.4,0-0.8,0-1.2c0.9-9.3,8.5-17,17.9-18.2c1.3-0.2,2.5-0.4,3.8-0.3c1.4,0.2,2.1,0.7,2,1.6
		c-0.2,1.2-1,1.5-2.1,1.3C511,533.2,510.9,533.2,510.7,533.1z"/>
	<path class="st0" d="M599.4,530.2c10.9,0.2,19.8,8.1,21,18.4c0.1,0.5,0.1,1,0,1.4c-0.2,0.7-0.6,1.1-1.4,1.1c-0.6,0-1.1-0.3-1.3-0.9
		c-0.2-0.7-0.3-1.4-0.4-2.1c-1.5-8.7-9-15-17.8-15c-0.3,0-0.6,0.1-1,0.1c-0.9,0-1.6-0.3-1.8-1.3c-0.2-1,0.5-1.5,1.4-1.6
		C598.7,530.3,599.3,530.2,599.4,530.2z"/>
	<path class="st0" d="M550.2,537.6c0.3,0.1,0.8,0.3,1.2,0.5c3.3,2,6.7,4,10,6.1c1.9,1.2,1.9,2.2,0,3.3c-3.3,2-6.7,4-10.1,6
		c-0.1,0.1-0.3,0.2-0.4,0.2c-0.8,0.4-1.5,0.5-2.2-0.3c-0.5-0.6-0.2-1.6,0.6-2.2c0.4-0.3,0.8-0.5,1.2-0.7c2.1-1.3,4.3-2.5,6.4-3.8
		c1.3-0.8,1.3-1,0.1-1.7c-2.2-1.4-4.5-2.7-6.7-4.1c-0.5-0.3-1-0.6-1.4-1c-0.4-0.4-0.5-1-0.3-1.5C549,537.8,549.5,537.6,550.2,537.6z
		"/>
	<path class="st0" d="M542.6,705.3c3.9,0,7,3.1,6.9,7c-0.1,3.8-3.2,6.8-6.9,6.9c-3.9,0-7-3.1-7-7
		C535.6,708.3,538.6,705.3,542.6,705.3z"/>
	<path class="st0" d="M321.7,745.1c2.4,0,4.4,0.7,6.1,2.1c0.7,0.5,1.2,1,0.4,1.9c-0.6,0.6-1.1,1.4-2.1,0.4c-1.2-1.1-2.7-1.7-4.4-1.6
		c-2.5,0.1-4.5,1.4-5.4,3.7c-1,2.6-0.5,5,1.3,7.1c1.6,1.7,4.1,2.2,6.4,1.4c0.8-0.3,1.5-0.7,2-1.2c0.8-0.9,1.4-0.7,2.1,0.1
		c0.7,0.7,0.5,1.2-0.1,1.8c-3.9,3.9-10.9,3.1-13.7-1.6c-1.9-3.1-2-6.4-0.2-9.6C315.9,746.6,318.5,745.3,321.7,745.1z"/>
	<path class="st0" d="M283.5,763c-1.5,0-3,0-4.6,0c-0.6,0-1.4,0.3-1.6-0.6c-0.2-0.7-0.2-1.4,0.5-2c0.5-0.4,1-0.9,1.4-1.3
		c1.8-1.6,3.6-3.2,5.3-4.8c0.5-0.5,1-1,1.4-1.6c0.9-1.3,0.8-2.9-0.1-3.8c-0.9-1-2.6-1.1-4-0.4c-0.8,0.4-1.4,1.1-1.9,1.8
		c-0.7,0.9-1.2,0.1-1.8-0.2c-0.7-0.4-0.8-0.8-0.3-1.5c1.7-2.7,5.2-3.9,8.2-2.9c3.1,1.1,4.4,4.7,2.7,7.7c-0.8,1.5-2.1,2.6-3.4,3.7
		c-0.8,0.7-1.7,1.5-2.5,2.2c-0.2,0.2-0.5,0.4-0.4,0.8c0.2,0.4,0.6,0.2,0.8,0.2c1.7,0,3.4,0,5,0c0.9,0,1.3,0.3,1.3,1.3
		c0,0.9-0.3,1.3-1.2,1.3C286.8,762.9,285.2,763,283.5,763C283.5,763,283.5,763,283.5,763z"/>
	<path class="st0" d="M317.8,678.1c0-2.4,0-4.8,0-7.2c0-1.1,0.4-1.6,1.5-1.5c2.4,0.1,4.8-0.2,7.2,0.2c4.4,0.7,5.9,3.6,3.6,7.6
		c-0.4,0.7-0.3,0.9,0.3,1.3c1.7,1.2,2.1,3,1.6,4.9c-0.6,1.9-2.1,3-4,3.4c-3,0.6-6,0.2-9.1,0.3c-1,0-1.1-0.7-1.1-1.5
		C317.8,683,317.8,680.5,317.8,678.1z M323.9,684.2C323.9,684.2,323.9,684.2,323.9,684.2c0.9,0,1.7,0,2.6,0c0.2,0,0.5,0,0.7-0.1
		c1.3-0.3,2-1.2,2-2.3c0-1.3-0.8-1.8-1.9-2.1c-2-0.5-3.9-0.2-5.9-0.2c-0.5,0-0.7,0.3-0.7,0.8c0,1.2-0.3,2.5,0.2,3.5
		c0.5,1,1.9,0.3,2.9,0.5C323.7,684.2,323.8,684.2,323.9,684.2z M324.2,672.1c-4,0.1-3.6-0.6-3.7,3.3c0,0.2,0,0.5,0,0.7
		c0.1,0.4,0.3,0.8,0.7,0.8c1.8,0,3.7,0.3,5.4-0.4c1-0.4,1.5-1.1,1.5-2.2c0-1.1-0.8-1.8-1.8-2C325.6,672.1,324.6,672.1,324.2,672.1z"
		/>
	<path class="st0" d="M311.2,725.4c-0.9,0.2-1.7-0.2-2-1.3c-0.6-2.6-2.2-3.4-4.7-3c-0.4,0.1-0.8,0.1-1.2,0c-2.5-0.3-4.6,0.1-5.1,3.1
		c-0.1,0.3-0.2,0.6-0.4,0.8c-0.7,0.7-1.7,0.6-2.5,0.3c-0.7-0.3-0.1-1.1,0.2-1.6c2.1-4.8,4.3-9.6,6.5-14.4c0.4-0.9,0.9-1.4,2-1.4
		c1,0,1.4,0.6,1.7,1.3c2.2,4.9,4.5,9.9,6.7,14.8C312.8,725.3,312.7,725.4,311.2,725.4z M303.6,718.5c3.4,0,3.1,0.1,1.8-2.9
		c-0.3-0.6-0.5-1.2-0.8-1.7c-0.3-0.5-0.3-1.2-0.9-1.3c-0.7-0.1-0.7,0.7-0.9,1.2c-0.3,0.6-0.6,1.3-0.9,2
		C300.8,718.4,300.3,718.5,303.6,718.5z"/>
	<path class="st0" d="M384.4,731.2c0,1.5-1,2.5-2.6,2.5c-1.6,0-2.7-1.1-2.6-2.7c0.1-1.5,1.2-2.4,2.7-2.4
		C383.4,728.7,384.4,729.7,384.4,731.2z"/>
</g>
</svg>
