<svg id="visual" viewBox="0 0 900 600" width="900" height="600" xmlns="http://www.w3.org/2000/svg" xmlns:xlink="http://www.w3.org/1999/xlink" version="1.1"><rect x="0" y="0" width="900" height="600" fill="#fff"></rect><defs><linearGradient id="grad1_0" x1="33.3%" y1="100%" x2="100%" y2="0%"><stop offset="20%" stop-color="#c4bcf8" stop-opacity="1"></stop><stop offset="80%" stop-color="#c4bcf8" stop-opacity="1"></stop></linearGradient></defs><defs><linearGradient id="grad1_1" x1="33.3%" y1="100%" x2="100%" y2="0%"><stop offset="20%" stop-color="#c4bcf8" stop-opacity="1"></stop><stop offset="80%" stop-color="#ffffff" stop-opacity="1"></stop></linearGradient></defs><defs><linearGradient id="grad2_0" x1="0%" y1="100%" x2="66.7%" y2="0%"><stop offset="20%" stop-color="#c4bcf8" stop-opacity="1"></stop><stop offset="80%" stop-color="#c4bcf8" stop-opacity="1"></stop></linearGradient></defs><defs><linearGradient id="grad2_1" x1="0%" y1="100%" x2="66.7%" y2="0%"><stop offset="20%" stop-color="#ffffff" stop-opacity="1"></stop><stop offset="80%" stop-color="#c4bcf8" stop-opacity="1"></stop></linearGradient></defs><g transform="translate(900, 600)"><path d="M-216.3 0C-211.6 -27 -206.8 -54.1 -197.7 -81.9C-188.6 -109.7 -175.1 -138.3 -153 -153C-130.8 -167.6 -100 -168.2 -73.1 -176.5C-46.2 -184.7 -23.1 -200.5 0 -216.3L0 0Z" fill="#e2ddfc"></path><path d="M-108.2 0C-105.8 -13.5 -103.4 -27 -98.9 -40.9C-94.3 -54.9 -87.6 -69.2 -76.5 -76.5C-65.4 -83.8 -50 -84.1 -36.5 -88.2C-23.1 -92.3 -11.5 -100.3 0 -108.2L0 0Z" fill="#c4bcf8"></path></g><g transform="translate(0, 0)"><path d="M216.3 0C202.9 25.5 189.5 51 176.5 73.1C163.5 95.2 150.9 113.8 136.5 136.5C122.1 159.2 105.8 185.9 82.8 199.9C59.7 213.9 29.9 215.1 0 216.3L0 0Z" fill="#e2ddfc"></path><path d="M108.2 0C101.5 12.8 94.7 25.5 88.2 36.5C81.7 47.6 75.4 56.9 68.2 68.2C61 79.6 52.9 92.9 41.4 99.9C29.9 106.9 14.9 107.5 0 108.2L0 0Z" fill="#c4bcf8"></path></g></svg>