<svg id="visual" viewBox="0 0 960 540" width="960" height="540" xmlns="http://www.w3.org/2000/svg" xmlns:xlink="http://www.w3.org/1999/xlink" version="1.1"><rect x="0" y="0" width="960" height="540" fill="#fff"></rect><defs><linearGradient id="grad1_0" x1="43.8%" y1="100%" x2="100%" y2="0%"><stop offset="14.444444444444446%" stop-color="#c4bcf8" stop-opacity="1"></stop><stop offset="85.55555555555554%" stop-color="#c4bcf8" stop-opacity="1"></stop></linearGradient></defs><defs><linearGradient id="grad1_1" x1="43.8%" y1="100%" x2="100%" y2="0%"><stop offset="14.444444444444446%" stop-color="#c4bcf8" stop-opacity="1"></stop><stop offset="85.55555555555554%" stop-color="#ffffff" stop-opacity="1"></stop></linearGradient></defs><defs><linearGradient id="grad2_0" x1="0%" y1="100%" x2="56.3%" y2="0%"><stop offset="14.444444444444446%" stop-color="#c4bcf8" stop-opacity="1"></stop><stop offset="85.55555555555554%" stop-color="#c4bcf8" stop-opacity="1"></stop></linearGradient></defs><defs><linearGradient id="grad2_1" x1="0%" y1="100%" x2="56.3%" y2="0%"><stop offset="14.444444444444446%" stop-color="#ffffff" stop-opacity="1"></stop><stop offset="85.55555555555554%" stop-color="#c4bcf8" stop-opacity="1"></stop></linearGradient></defs><g transform="translate(960, 540)"><path d="M-216 0C-209.7 -26.9 -203.4 -53.8 -194 -80.4C-184.6 -107 -172.1 -133.3 -152.7 -152.7C-133.3 -172.1 -107 -184.6 -80.4 -194C-53.8 -203.4 -26.9 -209.7 0 -216L0 0Z" fill="#e2ddfc"></path><path d="M-108 0C-104.9 -13.4 -101.7 -26.9 -97 -40.2C-92.3 -53.5 -86.1 -66.7 -76.4 -76.4C-66.7 -86.1 -53.5 -92.3 -40.2 -97C-26.9 -101.7 -13.4 -104.9 0 -108L0 0Z" fill="#c4bcf8"></path></g><g transform="translate(0, 0)"><path d="M216 0C207.2 25.8 198.4 51.6 189.4 78.5C180.4 105.3 171.1 133.1 152.7 152.7C134.4 172.4 106.9 183.9 80 193.1C53 202.3 26.5 209.1 0 216L0 0Z" fill="#e2ddfc"></path><path d="M108 0C103.6 12.9 99.2 25.8 94.7 39.2C90.2 52.6 85.5 66.5 76.4 76.4C67.2 86.2 53.5 92 40 96.5C26.5 101.1 13.3 104.6 0 108L0 0Z" fill="#c4bcf8"></path></g></svg>