<svg id="visual" viewBox="0 0 960 540" width="960" height="540" xmlns="http://www.w3.org/2000/svg" xmlns:xlink="http://www.w3.org/1999/xlink" version="1.1"><rect x="0" y="0" width="960" height="540" fill="#fff"></rect><defs><linearGradient id="grad1_0" x1="43.8%" y1="100%" x2="100%" y2="0%"><stop offset="14.444444444444446%" stop-color="#a0e5ef" stop-opacity="1"></stop><stop offset="85.55555555555554%" stop-color="#a0e5ef" stop-opacity="1"></stop></linearGradient></defs><defs><linearGradient id="grad1_1" x1="43.8%" y1="100%" x2="100%" y2="0%"><stop offset="14.444444444444446%" stop-color="#a0e5ef" stop-opacity="1"></stop><stop offset="85.55555555555554%" stop-color="#ffffff" stop-opacity="1"></stop></linearGradient></defs><defs><linearGradient id="grad2_0" x1="0%" y1="100%" x2="56.3%" y2="0%"><stop offset="14.444444444444446%" stop-color="#a0e5ef" stop-opacity="1"></stop><stop offset="85.55555555555554%" stop-color="#a0e5ef" stop-opacity="1"></stop></linearGradient></defs><defs><linearGradient id="grad2_1" x1="0%" y1="100%" x2="56.3%" y2="0%"><stop offset="14.444444444444446%" stop-color="#ffffff" stop-opacity="1"></stop><stop offset="85.55555555555554%" stop-color="#a0e5ef" stop-opacity="1"></stop></linearGradient></defs><g transform="translate(960, 540)"><path d="M-216 0C-206.7 -26 -197.4 -52.1 -187.5 -77.7C-177.6 -103.3 -167.1 -128.4 -149.9 -149.9C-132.7 -171.4 -108.8 -189.2 -82.7 -199.6C-56.6 -210 -28.3 -213 0 -216L0 0Z" fill="#d2f2f7"></path><path d="M-108 0C-103.4 -13 -98.7 -26 -93.8 -38.8C-88.8 -51.6 -83.6 -64.2 -75 -75C-66.3 -85.7 -54.4 -94.6 -41.3 -99.8C-28.3 -105 -14.1 -106.5 0 -108L0 0Z" fill="#a0e5ef"></path></g><g transform="translate(0, 0)"><path d="M216 0C201.8 23.6 187.6 47.3 179.2 74.2C170.9 101.2 168.4 131.6 152.7 152.7C137.1 173.9 108.4 185.9 80.7 194.9C53.1 204 26.6 210 0 216L0 0Z" fill="#d2f2f7"></path><path d="M108 0C100.9 11.8 93.8 23.6 89.6 37.1C85.4 50.6 84.2 65.8 76.4 76.4C68.6 87 54.2 93 40.4 97.5C26.6 102 13.3 105 0 108L0 0Z" fill="#a0e5ef"></path></g></svg>