<?xml version="1.0" standalone="no"?>
<!DOCTYPE svg PUBLIC "-//W3C//DTD SVG 20010904//EN"
 "http://www.w3.org/TR/2001/REC-SVG-20010904/DTD/svg10.dtd">
<svg version="1.0" xmlns="http://www.w3.org/2000/svg"
 width="1116.000000pt" height="1116.000000pt" viewBox="0 0 1116.000000 1116.000000"
 preserveAspectRatio="xMidYMid meet">
<metadata>
Created by potrace 1.14, written by Peter Selinger 2001-2017
</metadata>
<g transform="translate(0.000000,1116.000000) scale(0.100000,-0.100000)"
fill="#000000" stroke="none">
<path d="M5287 8984 c-1 -1 -47 -4 -102 -8 -105 -6 -108 -6 -221 -32 -39 -8
-77 -17 -85 -18 -8 -2 -21 -6 -29 -9 -8 -3 -44 -16 -80 -27 -66 -22 -283 -123
-310 -145 -8 -7 -35 -23 -60 -36 -25 -13 -47 -26 -50 -29 -3 -3 -34 -27 -70
-55 -36 -27 -72 -57 -81 -65 -8 -8 -38 -35 -65 -60 -66 -61 -190 -208 -251
-300 -111 -165 -212 -414 -239 -585 -7 -49 -17 -110 -21 -135 -10 -58 -10
-239 -1 -310 7 -48 16 -106 32 -190 15 -77 72 -247 128 -380 91 -218 324 -643
391 -715 43 -46 106 -133 100 -139 -4 -3 -1 -6 5 -6 7 0 12 -6 12 -13 0 -19
25 -68 47 -92 10 -11 72 -91 137 -178 66 -87 124 -161 131 -165 10 -6 83 -97
131 -163 11 -15 54 -66 96 -111 42 -46 100 -112 129 -148 113 -136 180 -207
496 -525 340 -343 595 -588 703 -679 47 -39 90 -75 96 -81 6 -5 28 -26 50 -46
21 -20 52 -50 68 -67 34 -37 42 -25 -79 -127 -64 -54 -95 -82 -174 -154 -22
-21 -145 -120 -251 -201 -18 -14 -44 -31 -59 -39 -14 -8 -28 -17 -31 -20 -8
-11 -99 -62 -190 -107 -76 -37 -269 -108 -324 -118 -12 -2 -64 -12 -116 -22
-147 -29 -523 -26 -660 5 -25 5 -56 12 -70 14 -34 7 -203 70 -270 101 -88 41
-160 84 -239 143 -117 88 -151 117 -199 174 l-31 36 52 39 c98 75 248 238 306
334 58 95 115 236 147 360 28 107 27 322 -2 470 -2 14 -7 43 -10 65 -4 22 -14
63 -24 90 -26 74 -59 186 -65 223 -3 17 -21 57 -40 87 -19 30 -35 59 -35 65 0
7 -11 39 -24 73 -13 34 -49 132 -80 217 -30 85 -82 223 -116 305 -33 83 -62
157 -64 165 -4 13 -29 71 -124 285 -43 98 -254 512 -312 615 -56 98 -260 407
-298 450 -11 14 -30 35 -41 48 -157 184 -331 307 -504 357 -130 37 -286 40
-484 10 -48 -7 -207 -72 -274 -112 -33 -19 -103 -52 -157 -74 -53 -23 -104
-47 -112 -54 -8 -7 -44 -26 -80 -43 -36 -16 -85 -39 -110 -50 -53 -24 -102
-65 -108 -90 -9 -35 -8 -107 1 -119 5 -7 7 -20 3 -28 -3 -9 -2 -13 4 -10 11 7
32 -29 23 -39 -3 -3 1 -6 9 -6 9 0 19 -7 22 -16 4 -9 9 -14 13 -11 3 4 15 2
26 -4 15 -8 18 -8 12 1 -6 9 -2 9 15 0 17 -9 28 -8 55 4 18 9 38 16 43 16 6 0
39 32 74 70 34 39 79 81 99 95 20 13 70 56 110 95 97 93 239 179 321 194 15 2
31 7 36 10 31 19 243 29 322 15 73 -13 197 -56 240 -82 19 -12 42 -26 51 -32
86 -53 200 -167 295 -295 76 -103 182 -259 205 -302 8 -14 36 -64 63 -110 57
-98 265 -521 291 -593 10 -27 28 -68 40 -90 13 -22 26 -51 30 -65 4 -14 19
-50 32 -80 14 -30 66 -158 115 -285 118 -303 128 -330 132 -352 2 -10 16 -53
30 -95 14 -42 35 -111 47 -155 38 -142 45 -165 84 -293 36 -118 44 -183 41
-325 -4 -135 -15 -199 -50 -280 -7 -16 -19 -46 -27 -65 -36 -95 -135 -234
-236 -332 -65 -63 -185 -158 -200 -158 -7 0 -13 -4 -13 -10 0 -5 -6 -10 -14
-10 -8 0 -16 -4 -18 -9 -7 -18 -229 -126 -283 -137 -5 -1 -37 -11 -70 -23 -33
-11 -69 -20 -80 -20 -11 -1 -43 -4 -72 -9 -28 -4 -69 -8 -90 -7 -106 4 -222
18 -258 31 -22 8 -59 21 -82 28 -79 25 -274 150 -357 228 -24 22 -164 130
-275 212 -174 128 -711 668 -956 961 -32 39 -62 72 -65 75 -14 11 -211 261
-261 330 -29 41 -56 77 -60 80 -4 3 -15 19 -25 36 -11 17 -48 80 -84 140 -56
93 -89 153 -95 174 -1 3 -12 28 -24 55 -62 136 -65 151 -65 345 1 130 4 175
18 210 9 25 18 50 19 55 1 6 4 12 7 15 3 3 14 25 25 50 31 69 81 139 151 207
77 77 151 125 231 151 33 11 78 31 99 44 39 24 56 33 169 82 101 45 129 63
147 92 39 67 29 127 -32 189 -37 38 -60 57 -60 51 0 -3 -12 -1 -26 5 -45 16
-92 -8 -179 -91 -44 -42 -105 -94 -135 -117 -30 -22 -68 -55 -85 -73 -16 -17
-59 -55 -95 -83 -36 -29 -67 -55 -68 -59 -2 -5 -8 -8 -12 -8 -9 0 -121 -108
-157 -152 -68 -83 -132 -209 -163 -321 -33 -119 -40 -162 -44 -247 -7 -156 92
-447 220 -648 19 -29 34 -55 34 -58 0 -20 265 -378 361 -489 15 -16 71 -82
125 -145 53 -63 107 -124 118 -135 27 -26 137 -146 241 -261 89 -98 221 -231
311 -313 87 -80 311 -290 358 -336 48 -47 288 -245 361 -298 137 -97 336 -183
450 -193 22 -2 60 -6 85 -10 83 -11 188 -7 327 11 64 9 240 69 340 117 48 23
96 41 107 40 11 0 56 -37 100 -81 104 -102 277 -225 415 -295 104 -52 296
-124 391 -146 25 -6 53 -13 64 -15 114 -27 568 -34 694 -10 255 46 496 142
713 283 98 64 314 232 384 298 60 56 191 170 244 212 62 48 57 49 156 -33 366
-306 858 -531 1270 -581 22 -3 54 -7 70 -10 63 -10 333 -12 390 -3 33 5 76 12
95 14 73 11 107 18 159 32 29 8 59 16 65 18 6 1 18 5 26 8 8 3 51 18 95 33 88
30 268 120 355 176 96 62 232 173 315 256 87 89 87 89 130 147 16 22 47 61 67
86 21 25 38 50 38 56 0 7 6 18 14 26 21 20 146 244 146 260 0 8 7 20 15 27 8
7 15 18 15 25 0 7 14 44 31 82 17 37 44 118 60 178 59 223 61 227 114 215 20
-5 33 -4 29 1 -3 5 5 5 18 1 29 -11 68 -7 193 18 210 42 445 198 561 372 42
63 113 195 118 221 2 7 6 21 10 32 33 86 37 115 37 231 -1 139 -7 190 -29 260
-61 186 -160 323 -322 445 -71 53 -129 82 -243 121 -84 29 -105 32 -237 34
-156 3 -200 -5 -342 -59 -231 -89 -413 -274 -526 -537 -53 -122 -66 -213 -47
-335 38 -249 105 -400 237 -535 75 -76 115 -110 173 -147 98 -63 97 -62 91
-102 -3 -20 -12 -67 -21 -106 -10 -38 -19 -83 -22 -100 -15 -91 -133 -354
-219 -488 -57 -89 -210 -281 -255 -322 -106 -95 -334 -261 -366 -266 -5 -1
-39 -16 -78 -35 -104 -48 -132 -59 -225 -87 -87 -27 -109 -31 -195 -43 -27 -3
-54 -9 -60 -12 -13 -8 -356 -12 -369 -5 -5 4 -32 8 -60 10 -123 8 -232 31
-396 83 -126 40 -367 156 -511 247 -99 63 -297 213 -337 255 l-23 25 153 151
c84 83 187 183 228 222 258 248 483 475 687 696 50 54 122 131 158 169 37 39
99 108 138 155 40 47 81 94 92 106 11 11 35 39 53 62 19 22 41 50 50 60 10 11
28 34 42 52 14 19 41 51 60 71 19 21 45 51 57 66 12 15 30 38 40 50 29 35 249
327 273 363 8 12 23 32 32 44 44 58 256 381 293 447 226 401 365 750 382 964
7 84 6 290 -1 397 -16 238 -167 591 -351 818 -50 62 -208 211 -281 267 -146
111 -350 221 -504 273 -36 12 -72 24 -80 27 -25 10 -125 33 -205 47 -151 28
-527 22 -635 -9 -8 -3 -32 -7 -52 -10 -124 -20 -429 -149 -569 -243 -106 -70
-175 -120 -207 -149 -10 -10 -25 -3 -75 33 -126 91 -235 159 -355 221 -67 34
-124 63 -127 62 -3 0 -43 12 -88 27 -45 15 -86 29 -92 30 -5 1 -41 10 -80 19
-98 23 -102 24 -180 31 -60 6 -273 11 -278 8z m358 -219 c101 -21 297 -87 395
-133 114 -53 350 -208 350 -230 0 -4 -12 -21 -27 -38 -226 -249 -283 -371
-278 -596 4 -135 46 -228 150 -329 46 -45 132 -95 177 -105 13 -2 34 -7 48
-10 33 -8 122 -11 135 -5 6 3 17 6 25 7 50 7 122 29 131 41 6 7 15 13 20 13
17 0 111 89 155 146 46 59 76 151 79 244 9 195 -70 370 -257 573 -27 29 -48
55 -48 59 0 4 7 13 16 20 8 7 23 20 33 28 25 22 141 100 148 100 4 0 14 6 22
14 24 22 188 102 266 130 85 30 215 67 215 60 0 -3 6 -2 12 2 7 5 19 9 28 10
8 1 40 6 70 10 65 9 345 10 410 1 158 -21 387 -90 523 -158 400 -201 705 -587
793 -1004 13 -63 21 -399 10 -451 -2 -12 -7 -37 -10 -55 -16 -105 -77 -310
-98 -333 -4 -6 -8 -16 -8 -23 0 -38 -267 -551 -292 -561 -4 -2 -8 -8 -8 -13 0
-8 -186 -293 -212 -324 -4 -5 -58 -77 -120 -160 -61 -82 -146 -193 -188 -245
-134 -167 -254 -315 -265 -326 -5 -6 -50 -58 -100 -114 -108 -123 -160 -179
-500 -535 -88 -92 -161 -171 -163 -176 -2 -5 -10 -9 -18 -9 -8 0 -14 -5 -14
-11 0 -6 -62 -73 -139 -148 -76 -75 -231 -227 -344 -338 -114 -112 -210 -203
-214 -203 -9 0 -23 12 -133 110 -40 36 -81 72 -90 80 -139 122 -235 215 -580
560 -401 400 -478 480 -595 615 -33 38 -69 79 -80 91 -53 57 -137 155 -180
209 -27 33 -60 71 -74 85 -15 14 -99 122 -187 240 -171 229 -268 359 -296 395
-10 12 -32 51 -49 86 -18 35 -49 90 -70 121 -22 31 -39 60 -39 64 0 3 -20 38
-44 78 -61 96 -190 373 -211 451 -10 35 -10 36 -18 55 -14 33 -57 198 -62 240
-4 25 -10 62 -15 83 -9 42 -6 318 4 357 3 14 9 48 12 75 8 71 67 244 119 350
70 145 157 267 274 384 128 130 149 147 254 215 141 92 240 137 417 189 125
38 136 40 235 52 33 4 61 8 62 9 2 1 83 1 180 0 120 -1 204 -8 258 -19z m962
-560 c55 -59 133 -170 171 -245 32 -62 41 -188 18 -258 -23 -69 -79 -130 -144
-159 -30 -13 -61 -22 -68 -19 -7 3 -16 1 -20 -5 -11 -19 -151 18 -147 40 2 5
-4 8 -11 5 -20 -8 -102 80 -111 119 -31 128 -24 211 26 315 40 83 187 259 219
261 8 1 38 -24 67 -54z m3773 -2269 c14 -2 26 -5 28 -5 1 -1 3 -1 5 0 9 2 162
-59 207 -84 193 -106 330 -290 374 -501 12 -57 14 -150 3 -186 -16 -50 -20
-60 -28 -60 -5 0 -5 -8 -2 -17 6 -16 5 -17 -12 -3 -11 9 -16 10 -11 2 10 -16
-2 -52 -17 -49 -6 1 -11 -4 -12 -10 0 -7 -10 -19 -21 -28 -19 -13 -23 -13 -28
0 -3 10 5 20 23 29 15 8 34 23 42 33 12 16 12 17 -2 6 -9 -7 -20 -9 -24 -5 -5
4 -4 1 0 -7 6 -11 4 -13 -9 -8 -10 4 -15 3 -11 -3 9 -14 -8 -12 -25 3 -12 10
-12 9 -2 -4 16 -22 2 -33 -15 -11 -10 14 -12 14 -8 1 4 -10 0 -16 -10 -16 -8
0 -15 4 -15 8 0 5 -10 13 -22 19 -21 10 -21 10 -5 -3 21 -17 22 -24 2 -24 -8
0 -15 4 -15 9 0 5 -5 6 -11 2 -15 -9 9 -23 33 -19 10 2 18 1 18 -3 0 -10 -81
-62 -95 -62 -7 0 -10 -15 -8 -36 1 -20 1 -35 0 -33 -2 2 -9 13 -17 23 -10 14
-11 17 -2 12 9 -6 12 -1 10 16 -2 12 -7 29 -12 37 -6 9 -5 12 2 7 6 -3 13 -2
17 4 4 6 11 7 17 4 8 -5 9 -1 5 10 -4 9 -3 14 2 11 5 -3 12 -1 16 5 3 5 0 10
-7 10 -8 0 -9 3 -3 8 15 10 23 128 12 187 -30 178 -112 309 -242 386 -98 58
-131 68 -240 73 -89 4 -165 -6 -236 -33 -106 -40 -129 -61 -432 -375 -56 -59
-69 -67 -81 -56 -9 7 -13 16 -10 21 3 5 0 9 -6 9 -6 0 -9 4 -5 9 3 5 -2 17
-11 25 -12 12 -12 16 -2 17 10 0 10 2 0 6 -6 2 -10 8 -8 12 3 4 7 28 10 53 7
55 17 84 58 162 67 131 131 206 229 272 120 79 254 137 357 153 46 7 203 5
252 -3z m-385 -525 c-3 -5 0 -13 6 -17 7 -4 9 -3 5 4 -11 18 16 26 29 9 7 -10
17 -17 24 -17 6 0 11 -4 11 -10 0 -5 6 -10 14 -10 8 0 18 -5 22 -12 5 -7 3 -8
-7 -3 -8 5 -5 -1 5 -14 11 -12 31 -27 45 -34 13 -7 26 -19 28 -27 3 -10 1 -9
-7 3 -6 9 -16 17 -21 17 -6 0 -4 -7 5 -15 8 -9 18 -15 22 -15 3 1 15 -14 26
-32 11 -18 25 -37 32 -43 6 -5 20 -21 30 -35 10 -14 16 -17 13 -8 -4 10 -2 20
4 23 5 4 9 3 8 -2 -4 -24 3 -43 17 -43 9 0 12 -5 8 -12 -5 -8 0 -7 11 2 17 14
18 13 12 -4 -6 -14 -4 -17 9 -12 13 5 14 4 6 -7 -9 -10 -8 -17 0 -25 7 -7 9
-12 5 -12 -4 0 -2 -10 5 -22 7 -13 13 -26 14 -30 1 -5 3 -11 4 -15 1 -5 2 -12
1 -16 -1 -5 3 -6 8 -3 10 7 9 25 -2 43 -6 9 -3 11 8 7 9 -4 14 -13 11 -20 -3
-7 -1 -16 4 -19 6 -4 10 0 10 7 0 10 2 10 9 -1 5 -8 7 -21 4 -30 -3 -9 4 -5
15 8 l20 24 -3 -26 c-3 -28 9 -37 18 -14 4 9 6 9 6 0 1 -7 -8 -17 -18 -23 -16
-8 -24 -5 -44 21 -19 25 -25 28 -30 15 -4 -9 -1 -15 6 -13 7 1 11 -6 11 -15
-1 -11 4 -14 14 -11 9 4 13 2 9 -3 -3 -6 12 -11 36 -12 33 -2 39 0 27 9 -13 9
-13 10 0 6 8 -2 14 -13 12 -23 -4 -23 -71 -94 -89 -94 -7 0 -13 -4 -13 -9 0
-5 -10 -13 -22 -16 -13 -4 -39 -14 -58 -23 -52 -24 -189 -28 -250 -8 -114 37
-207 126 -242 229 -6 18 -15 37 -20 44 -5 6 -10 44 -10 85 -1 122 47 226 129
278 47 30 69 38 58 21z m215 -156 c0 -5 -5 -3 -10 5 -5 8 -10 20 -10 25 0 6 5
3 10 -5 5 -8 10 -19 10 -25z m40 -40 c11 -13 10 -14 -4 -9 -9 3 -16 10 -16 15
0 13 6 11 20 -6z m123 -140 c4 -8 1 -17 -6 -21 -7 -4 -9 -4 -5 1 4 4 3 14 -3
22 -7 8 -8 13 -1 13 5 0 12 -7 15 -15z m34 -28 c0 -7 -9 -13 -19 -13 -18 0
-18 1 -2 13 10 7 18 13 19 13 1 0 2 -6 2 -13z m273 -53 c0 -8 -4 -12 -10 -9
-5 3 -10 10 -10 16 0 5 5 9 10 9 6 0 10 -7 10 -16z m160 6 c5 8 9 5 13 -9 3
-12 0 -19 -7 -18 -13 2 -26 18 -25 32 0 6 3 4 6 -4 4 -10 7 -10 13 -1z m-37
-45 c4 -8 3 -16 -1 -19 -4 -3 -9 4 -9 15 -2 23 3 25 10 4z m-49 -30 c-4 -8
-11 -12 -16 -9 -6 4 -5 10 3 15 19 12 19 11 13 -6z m-64 -65 c0 -5 -5 -10 -11
-10 -5 0 -7 5 -4 10 3 6 8 10 11 10 2 0 4 -4 4 -10z"/>
<path d="M6726 7202 c-78 -46 -113 -123 -102 -225 13 -130 92 -210 204 -206
84 4 127 44 158 150 24 80 -2 168 -70 234 -62 62 -135 80 -190 47z"/>
<path d="M7169 7146 c-75 -25 -106 -173 -53 -252 31 -45 47 -57 92 -65 27 -5
39 0 71 28 53 45 72 101 56 168 -14 62 -37 98 -73 115 -36 17 -54 19 -93 6z"/>
<path d="M7468 7039 c-59 -30 -81 -91 -65 -173 8 -39 34 -76 55 -77 9 0 26 -2
37 -4 59 -11 112 42 122 122 7 61 -16 117 -58 138 -36 19 -46 18 -91 -6z"/>
<path d="M7710 6881 c0 -3 -10 -11 -22 -16 -34 -15 -54 -86 -39 -136 11 -35
16 -41 37 -38 4 0 10 -5 14 -11 13 -22 58 -2 104 45 35 35 44 51 42 75 -2 30
-24 58 -62 78 -21 11 -74 13 -74 3z"/>
<path d="M6225 6773 c-57 -11 -125 -69 -151 -133 -19 -45 -19 -148 -1 -191 17
-39 80 -110 117 -132 32 -19 96 -15 128 8 82 58 130 156 117 236 -11 62 -38
120 -74 156 -32 33 -103 62 -136 56z"/>
<path d="M7018 6749 c-178 -35 -268 -141 -253 -295 6 -65 36 -137 97 -233 119
-188 142 -247 132 -347 -7 -77 -9 -92 -16 -114 -49 -150 -71 -253 -70 -320 1
-103 52 -208 127 -266 35 -26 148 -66 175 -60 58 11 135 42 172 68 53 39 166
155 174 180 3 10 10 18 15 18 5 0 9 4 9 9 0 5 15 34 34 65 43 72 119 244 147
333 11 37 23 75 26 83 3 8 8 26 10 40 2 14 13 59 25 100 14 51 22 115 24 198
3 104 1 131 -17 180 -43 119 -72 163 -144 217 -22 16 -42 33 -45 36 -8 10
-261 97 -300 103 -154 24 -224 25 -322 5z"/>
<path d="M7880 6692 c-44 -19 -79 -61 -74 -89 1 -7 2 -20 3 -28 2 -28 49 -63
76 -58 33 7 94 68 90 90 -2 10 -4 26 -4 36 -2 34 -56 64 -91 49z"/>
<path d="M5811 6618 c-32 -9 -61 -35 -88 -82 -19 -32 -15 -92 8 -146 26 -60
82 -93 144 -86 66 8 98 60 98 162 0 96 -82 173 -162 152z"/>
<path d="M5474 6420 c-40 -60 -33 -125 17 -181 27 -29 49 -39 98 -46 27 -3 39
2 61 25 54 57 47 145 -17 207 -31 30 -43 35 -84 35 -46 0 -50 -2 -75 -40z"/>
<path d="M5345 6262 c-31 -6 -70 -49 -73 -79 -3 -37 35 -110 62 -118 72 -22
85 -22 115 -4 37 22 48 59 30 100 -23 56 -94 110 -134 101z"/>
<path d="M6037 6264 c-1 -1 -29 -4 -63 -6 -33 -3 -69 -10 -80 -17 -17 -10 -93
-38 -119 -44 -15 -4 -114 -53 -160 -79 -115 -66 -165 -114 -218 -212 -28 -51
-28 -52 -24 -201 5 -170 16 -213 94 -374 129 -268 316 -517 463 -616 175 -118
325 -120 442 -3 38 38 66 83 74 121 6 26 6 164 0 192 -7 33 -45 124 -71 171
-51 92 -97 217 -109 300 -2 16 2 46 18 113 3 13 17 54 30 90 14 36 35 98 46
136 12 39 27 81 33 95 17 35 14 86 -8 148 -25 69 -70 120 -135 156 -43 23 -65
28 -131 30 -44 1 -81 1 -82 0z"/>
<path d="M5205 6022 c-67 -14 -33 -130 45 -152 39 -11 71 0 92 32 15 22 15 28
1 56 -8 17 -22 37 -31 45 -18 16 -74 26 -107 19z"/>
<path d="M10880 5010 c-8 -5 -10 -10 -5 -10 6 0 17 5 25 10 8 5 11 10 5 10 -5
0 -17 -5 -25 -10z"/>
<path d="M10739 4978 c-6 -10 -14 -16 -19 -13 -5 3 -11 1 -15 -5 -10 -17 18
-11 53 10 38 23 39 26 11 26 -11 0 -25 -8 -30 -18z"/>
<path d="M10445 4951 c-3 -5 -2 -12 3 -15 5 -3 9 1 9 9 0 17 -3 19 -12 6z"/>
<path d="M10450 4879 c0 -5 5 -7 10 -4 6 3 10 8 10 11 0 2 -4 4 -10 4 -5 0
-10 -5 -10 -11z"/>
</g>
</svg>
